<svg baseProfile="full" height="512px" version="1.1" width="512px" xmlns="http://www.w3.org/2000/svg" xmlns:ev="http://www.w3.org/2001/xml-events" xmlns:xlink="http://www.w3.org/1999/xlink"><defs><linearGradient id="grad1" x1="0%" x2="0%" y1="0%" y2="100%"><stop offset="0%" stop-color="#00C853" stop-opacity="1" /><stop offset="100%" stop-color="#64DD17" stop-opacity="1" /></linearGradient></defs><polygon fill="url(#grad1)" points="311.0,-115.5 310.0,-115.5 309.0,-115.5 308.0,-115.5 307.0,-115.5 306.0,-115.5 305.0,-115.5 304.0,-115.5 303.0,-115.5 302.0,-115.5 301.0,-115.5 300.0,-115.5 299.0,-115.5 298.5,-115.0 298.0,-114.5 297.5,-114.0 297.0,-113.5 296.5,-113.0 296.0,-112.5 295.5,-112.0 295.5,-111.0 295.5,-110.0 295.5,-109.0 295.5,-108.0 295.5,-107.0 295.5,-106.0 295.5,-105.0 295.5,-104.0 295.5,-103.0 295.5,-102.0 295.5,-101.0 295.5,-100.0 295.5,-99.0 295.5,-98.0 295.5,-97.0 295.5,-96.0 295.5,-95.0 295.5,-94.0 295.5,-93.0 295.5,-92.0 295.5,-91.0 295.5,-90.0 295.5,-89.0 295.5,-88.0 295.5,-87.0 295.5,-86.0 295.5,-85.0 295.5,-84.0 296.0,-83.5 296.5,-83.0 296.5,-82.0 296.5,-81.0 296.5,-80.0 296.5,-79.0 296.5,-78.0 296.5,-77.0 296.5,-76.0 296.5,-75.0 296.5,-74.0 297.0,-73.5 297.5,-73.0 297.5,-72.0 297.5,-71.0 297.5,-70.0 297.5,-69.0 297.5,-68.0 297.5,-67.0 298.0,-66.5 298.5,-66.0 298.5,-65.0 298.5,-64.0 298.5,-63.0 298.5,-62.0 298.5,-61.0 298.5,-60.0 299.0,-59.5 299.5,-59.0 299.5,-58.0 299.5,-57.0 299.5,-56.0 299.5,-55.0 300.0,-54.5 300.5,-54.0 300.5,-53.0 300.5,-52.0 300.5,-51.0 300.5,-50.0 300.5,-49.0 301.0,-48.5 301.5,-48.0 301.5,-47.0 301.5,-46.0 301.5,-45.0 302.0,-44.5 302.5,-44.0 302.5,-43.0 302.5,-42.0 302.5,-41.0 303.0,-40.5 303.5,-40.0 303.5,-39.0 303.5,-38.0 303.5,-37.0 304.0,-36.5 304.5,-36.0 304.5,-35.0 304.5,-34.0 304.5,-33.0 305.0,-32.5 305.5,-32.0 305.5,-31.0 305.5,-30.0 306.0,-29.5 306.5,-29.0 306.5,-28.0 306.5,-27.0 307.0,-26.5 307.5,-26.0 307.5,-25.0 307.5,-24.0 308.0,-23.5 308.5,-23.0 308.5,-22.0 308.5,-21.0 309.0,-20.5 309.5,-20.0 309.5,-19.0 309.5,-18.0 310.0,-17.5 310.5,-17.0 310.5,-16.0 311.0,-15.5 311.5,-15.0 311.5,-14.0 311.5,-13.0 312.0,-12.5 312.5,-12.0 312.5,-11.0 312.5,-10.0 313.0,-9.5 313.5,-9.0 313.5,-8.0 314.0,-7.5 314.5,-7.0 314.5,-6.0 315.0,-5.5 315.5,-5.0 315.5,-4.0 316.0,-3.5 316.5,-3.0 316.5,-2.0 316.5,-1.0 317.0,-0.5 317.5,0.0 317.5,1.0 318.0,1.5 318.5,2.0 318.5,3.0 319.0,3.5 319.5,4.0 319.5,5.0 320.0,5.5 320.5,6.0 320.5,7.0 321.0,7.5 321.5,8.0 322.0,8.5 322.5,9.0 322.5,10.0 323.0,10.5 323.5,11.0 323.5,12.0 324.0,12.5 324.5,13.0 324.5,14.0 325.0,14.5 325.5,15.0 326.0,15.5 326.5,16.0 326.5,17.0 327.0,17.5 327.5,18.0 327.5,19.0 328.0,19.5 328.5,20.0 329.0,20.5 329.5,21.0 329.5,22.0 330.0,22.5 330.5,23.0 331.0,23.5 331.5,24.0 331.5,25.0 332.0,25.5 332.5,26.0 333.0,26.5 333.5,27.0 333.5,28.0 334.0,28.5 334.5,29.0 335.0,29.5 335.5,30.0 336.0,30.5 336.5,31.0 336.5,32.0 337.0,32.5 337.5,33.0 338.0,33.5 338.5,34.0 339.0,34.5 339.5,35.0 339.5,36.0 340.0,36.5 340.5,37.0 341.0,37.5 341.5,38.0 342.0,38.5 342.5,39.0 343.0,39.5 343.5,40.0 344.0,40.5 344.5,41.0 344.5,42.0 345.0,42.5 345.5,43.0 346.0,43.5 346.5,44.0 347.0,44.5 347.5,45.0 348.0,45.5 348.5,46.0 349.0,46.5 349.5,47.0 350.0,47.5 350.5,48.0 351.0,48.5 351.5,49.0 352.0,49.5 352.5,50.0 352.5,51.0 353.0,51.5 353.5,52.0 354.0,52.5 354.5,53.0 355.0,53.5 355.5,54.0 356.0,54.5 356.5,55.0 357.0,55.5 357.5,56.0 358.0,56.5 358.5,57.0 359.0,57.5 359.5,58.0 360.0,58.5 360.5,59.0 361.0,59.5 361.5,60.0 362.0,60.5 362.5,61.0 363.0,61.5 364.0,61.5 364.5,62.0 365.0,62.5 365.5,63.0 366.0,63.5 366.5,64.0 367.0,64.5 367.5,65.0 368.0,65.5 368.5,66.0 369.0,66.5 369.5,67.0 370.0,67.5 370.5,68.0 371.0,68.5 371.5,69.0 372.0,69.5 372.5,70.0 373.0,70.5 373.5,71.0 374.0,71.5 374.5,72.0 375.0,72.5 375.5,73.0 376.0,73.5 376.5,74.0 376.5,75.0 376.5,76.0 376.5,77.0 376.0,77.5 375.5,78.0 375.0,78.5 374.5,79.0 374.0,79.5 373.0,79.5 372.5,80.0 372.0,80.5 371.5,80.0 371.0,79.5 370.0,79.5 369.5,79.0 369.0,78.5 368.5,78.0 368.0,77.5 367.0,77.5 366.5,77.0 366.0,76.5 365.5,76.0 365.0,75.5 364.5,75.0 364.0,74.5 363.5,74.0 363.0,73.5 362.0,73.5 361.5,73.0 361.0,72.5 360.5,72.0 360.0,71.5 359.5,71.0 359.0,70.5 358.5,70.0 358.0,69.5 357.0,69.5 356.5,69.0 356.0,68.5 355.5,68.0 355.0,67.5 354.5,67.0 354.0,66.5 353.5,66.0 353.0,65.5 352.5,65.0 352.0,64.5 351.5,64.0 351.0,63.5 350.0,63.5 349.5,63.0 349.5,62.0 349.0,61.5 348.0,61.5 347.5,61.0 347.0,60.5 346.5,60.0 346.0,59.5 345.5,59.0 345.0,58.5 344.5,58.0 344.0,57.5 343.5,57.0 343.0,56.5 342.5,56.0 342.0,55.5 341.5,55.0 341.0,54.5 340.5,54.0 340.0,53.5 339.5,53.0 339.0,52.5 338.5,52.0 338.0,51.5 337.5,51.0 337.0,50.5 336.5,50.0 336.0,49.5 335.5,49.0 335.5,48.0 335.0,47.5 334.5,47.0 334.0,46.5 333.5,46.0 333.0,45.5 332.5,45.0 332.0,44.5 331.5,44.0 331.0,43.5 330.5,43.0 330.5,42.0 330.0,41.5 329.5,41.0 329.0,40.5 328.5,40.0 328.0,39.5 327.5,39.0 327.0,38.5 326.5,38.0 326.0,37.5 325.5,37.0 325.5,36.0 325.0,35.5 324.5,35.0 324.0,34.5 323.5,34.0 323.0,33.5 322.5,33.0 322.5,32.0 322.0,31.5 321.5,31.0 321.0,30.5 320.5,30.0 320.5,29.0 320.0,28.5 319.5,28.0 319.0,27.5 318.5,27.0 318.5,26.0 318.0,25.5 317.5,25.0 317.0,24.5 316.5,24.0 316.5,23.0 316.0,22.5 315.5,22.0 315.0,21.5 314.5,21.0 314.5,20.0 314.0,19.5 313.5,19.0 313.5,18.0 313.0,17.5 312.5,17.0 312.5,16.0 312.0,15.5 311.5,15.0 311.0,14.5 310.5,14.0 310.5,13.0 310.0,12.5 309.5,12.0 309.5,11.0 309.0,10.5 308.5,10.0 308.5,9.0 308.0,8.5 307.5,8.0 307.5,7.0 307.0,6.5 306.5,6.0 306.5,5.0 306.0,4.5 305.5,4.0 305.5,3.0 305.0,2.5 304.5,2.0 304.5,1.0 304.0,0.5 303.5,0.0 303.5,-1.0 303.0,-1.5 302.5,-2.0 302.5,-3.0 302.0,-3.5 301.5,-4.0 301.5,-5.0 301.5,-6.0 301.0,-6.5 300.5,-7.0 300.5,-8.0 300.0,-8.5 299.5,-9.0 299.5,-10.0 299.5,-11.0 299.0,-11.5 298.5,-12.0 298.5,-13.0 298.0,-13.5 297.5,-14.0 297.5,-15.0 297.5,-16.0 297.0,-16.5 296.5,-17.0 296.5,-18.0 296.5,-19.0 296.0,-19.5 295.5,-20.0 295.5,-21.0 295.5,-22.0 295.0,-22.5 294.5,-23.0 294.5,-24.0 294.5,-25.0 294.0,-25.5 293.5,-26.0 293.5,-27.0 293.5,-28.0 293.0,-28.5 292.5,-29.0 292.5,-30.0 292.5,-31.0 292.5,-32.0 292.0,-32.5 291.5,-33.0 291.5,-34.0 291.5,-35.0 291.5,-36.0 291.0,-36.5 290.5,-37.0 290.5,-38.0 290.5,-39.0 290.0,-39.5 289.5,-40.0 289.5,-41.0 289.5,-42.0 289.5,-43.0 289.5,-44.0 289.0,-44.5 288.5,-45.0 288.5,-46.0 288.5,-47.0 288.5,-48.0 288.0,-48.5 287.5,-49.0 287.5,-50.0 287.5,-51.0 287.5,-52.0 287.5,-53.0 287.5,-54.0 287.0,-54.5 286.5,-55.0 286.5,-56.0 286.5,-57.0 286.5,-58.0 286.5,-59.0 286.0,-59.5 285.5,-59.0 285.0,-58.5 284.5,-58.0 284.0,-57.5 283.5,-57.0 283.5,-56.0 283.0,-55.5 282.5,-55.0 282.0,-54.5 281.5,-54.0 281.0,-53.5 280.5,-53.0 280.5,-52.0 280.0,-51.5 279.5,-51.0 279.0,-50.5 278.5,-50.0 278.5,-49.0 278.0,-48.5 277.5,-48.0 277.0,-47.5 276.5,-47.0 276.5,-46.0 276.0,-45.5 275.5,-45.0 275.5,-44.0 275.0,-43.5 274.5,-43.0 274.5,-42.0 274.0,-41.5 273.5,-41.0 273.0,-40.5 272.5,-40.0 272.5,-39.0 272.0,-38.5 271.5,-38.0 271.5,-37.0 271.0,-36.5 270.5,-36.0 270.5,-35.0 270.0,-34.5 269.5,-34.0 269.5,-33.0 269.0,-32.5 268.5,-32.0 268.5,-31.0 268.0,-30.5 267.5,-30.0 267.5,-29.0 267.5,-28.0 267.0,-27.5 266.5,-27.0 266.5,-26.0 266.0,-25.5 265.5,-25.0 265.5,-24.0 265.5,-23.0 265.0,-22.5 264.5,-22.0 264.5,-21.0 264.0,-20.5 263.5,-20.0 263.5,-19.0 263.5,-18.0 263.0,-17.5 262.5,-17.0 262.5,-16.0 262.5,-15.0 262.0,-14.5 261.5,-14.0 261.5,-13.0 261.5,-12.0 261.5,-11.0 261.0,-10.5 260.5,-10.0 260.5,-9.0 260.5,-8.0 260.0,-7.5 259.5,-7.0 259.5,-6.0 259.5,-5.0 259.5,-4.0 259.5,-3.0 259.0,-2.5 258.5,-2.0 258.5,-1.0 258.5,0.0 258.5,1.0 258.5,2.0 258.0,2.5 257.5,3.0 257.5,4.0 257.5,5.0 257.5,6.0 257.5,7.0 257.5,8.0 257.5,9.0 257.0,9.5 256.5,10.0 256.5,11.0 256.5,12.0 256.5,13.0 256.5,14.0 256.5,15.0 256.5,16.0 256.5,17.0 256.5,18.0 256.5,19.0 256.5,20.0 256.5,21.0 256.5,22.0 256.5,23.0 256.5,24.0 256.5,25.0 256.5,26.0 256.0,26.5 255.5,27.0 256.0,27.5 256.5,28.0 256.5,29.0 256.5,30.0 256.5,31.0 256.5,32.0 256.5,33.0 256.5,34.0 256.5,35.0 256.5,36.0 256.5,37.0 256.5,38.0 256.5,39.0 256.5,40.0 256.5,41.0 256.5,42.0 256.5,43.0 257.0,43.5 257.5,44.0 257.5,45.0 257.5,46.0 257.5,47.0 257.5,48.0 257.5,49.0 258.0,49.5 258.5,50.0 258.5,51.0 258.5,52.0 258.5,53.0 258.5,54.0 259.0,54.5 259.5,55.0 259.5,56.0 259.5,57.0 259.5,58.0 260.0,58.5 260.5,59.0 260.5,60.0 260.5,61.0 260.5,62.0 261.0,62.5 261.5,63.0 261.5,64.0 261.5,65.0 262.0,65.5 262.5,66.0 262.5,67.0 262.5,68.0 263.0,68.5 263.5,69.0 263.5,70.0 264.0,70.5 264.5,71.0 264.5,72.0 264.5,73.0 265.0,73.5 265.5,74.0 265.5,75.0 266.0,75.5 266.5,76.0 266.5,77.0 267.0,77.5 267.5,78.0 267.5,79.0 267.5,80.0 268.0,80.5 268.5,81.0 268.5,82.0 269.0,82.5 269.5,83.0 270.0,83.5 270.5,84.0 270.5,85.0 271.0,85.5 271.5,86.0 271.5,87.0 272.0,87.5 272.5,88.0 272.5,89.0 273.0,89.5 273.5,90.0 274.0,90.5 274.5,91.0 274.5,92.0 275.0,92.5 275.5,93.0 276.0,93.5 276.5,94.0 276.5,95.0 277.0,95.5 277.5,96.0 278.0,96.5 278.5,97.0 278.5,98.0 279.0,98.5 279.5,99.0 280.0,99.5 280.5,100.0 280.5,101.0 281.0,101.5 281.5,102.0 282.0,102.5 282.5,103.0 283.0,103.5 283.5,104.0 284.0,104.5 284.5,105.0 285.0,105.5 285.5,106.0 285.5,107.0 286.0,107.5 286.5,108.0 287.0,108.5 287.5,109.0 288.0,109.5 288.5,110.0 289.0,110.5 289.5,111.0 290.0,111.5 290.5,112.0 291.0,112.5 291.5,113.0 292.0,113.5 292.5,114.0 293.0,114.5 293.5,115.0 294.0,115.5 294.5,116.0 295.0,116.5 295.5,117.0 296.0,117.5 296.5,118.0 297.0,118.5 297.5,119.0 298.0,119.5 298.5,120.0 299.0,120.5 299.5,121.0 300.0,121.5 300.5,122.0 301.0,122.5 301.5,123.0 302.0,123.5 302.5,124.0 303.0,124.5 303.5,125.0 304.0,125.5 304.5,126.0 305.0,126.5 306.0,126.5 306.5,127.0 307.0,127.5 307.5,128.0 308.0,128.5 308.5,129.0 309.0,129.5 309.5,130.0 310.0,130.5 310.5,131.0 311.0,131.5 312.0,131.5 312.5,132.0 313.0,132.5 313.5,133.0 314.0,133.5 314.5,134.0 315.0,134.5 316.0,134.5 316.5,135.0 317.0,135.5 317.5,136.0 318.0,136.5 318.5,137.0 319.0,137.5 320.0,137.5 320.5,138.0 321.0,138.5 321.5,139.0 322.0,139.5 323.0,139.5 323.5,140.0 324.0,140.5 324.5,141.0 325.0,141.5 325.5,142.0 326.0,142.5 327.0,142.5 327.5,143.0 328.0,143.5 328.5,144.0 329.0,144.5 330.0,144.5 330.5,145.0 331.0,145.5 332.0,145.5 332.5,146.0 333.0,146.5 334.0,146.5 334.5,147.0 335.0,147.5 336.0,147.5 336.5,148.0 337.0,148.5 338.0,148.5 338.5,149.0 339.0,149.5 340.0,149.5 340.5,150.0 341.0,150.5 342.0,150.5 342.5,151.0 343.0,151.5 344.0,151.5 344.5,152.0 345.0,152.5 346.0,152.5 346.5,153.0 347.0,153.5 348.0,153.5 348.5,154.0 349.0,154.5 350.0,154.5 350.5,155.0 351.0,155.5 352.0,155.5 352.5,156.0 353.0,156.5 353.5,157.0 354.0,157.5 355.0,157.5 355.5,158.0 356.0,158.5 357.0,158.5 357.5,159.0 358.0,159.5 359.0,159.5 359.5,160.0 360.0,160.5 361.0,160.5 361.5,161.0 362.0,161.5 363.0,161.5 363.5,162.0 364.0,162.5 365.0,162.5 365.5,163.0 366.0,163.5 367.0,163.5 367.5,164.0 368.0,164.5 369.0,164.5 369.5,165.0 370.0,165.5 371.0,165.5 371.5,166.0 372.0,166.5 372.5,167.0 373.0,167.5 374.0,167.5 374.5,168.0 375.0,168.5 376.0,168.5 376.5,169.0 377.0,169.5 378.0,169.5 378.5,170.0 379.0,170.5 380.0,170.5 380.5,171.0 381.0,171.5 381.5,172.0 382.0,172.5 383.0,172.5 383.5,173.0 384.0,173.5 385.0,173.5 385.5,174.0 386.0,174.5 386.5,175.0 387.0,175.5 388.0,175.5 388.5,176.0 389.0,176.5 389.5,177.0 390.0,177.5 391.0,177.5 391.5,178.0 392.0,178.5 393.0,178.5 393.5,179.0 394.0,179.5 394.5,180.0 395.0,180.5 396.0,180.5 396.5,181.0 397.0,181.5 397.5,182.0 398.0,182.5 399.0,182.5 399.5,183.0 399.5,184.0 400.0,184.5 401.0,184.5 402.0,184.5 402.5,185.0 403.0,185.5 403.5,186.0 404.0,186.5 404.5,187.0 405.0,187.5 406.0,187.5 406.5,188.0 407.0,188.5 407.5,189.0 408.0,189.5 408.5,190.0 409.0,190.5 410.0,190.5 410.5,191.0 411.0,191.5 411.5,192.0 412.0,192.5 412.5,193.0 413.0,193.5 413.5,194.0 414.0,194.5 414.5,195.0 415.0,195.5 416.0,195.5 416.5,196.0 417.0,196.5 417.5,197.0 418.0,197.5 418.5,198.0 419.0,198.5 419.5,199.0 420.0,199.5 420.5,200.0 421.0,200.5 421.5,201.0 422.0,201.5 422.5,202.0 423.0,202.5 424.0,202.5 424.5,203.0 425.0,203.5 425.5,204.0 426.0,204.5 426.5,205.0 427.0,205.5 427.5,206.0 428.0,206.5 428.5,207.0 429.0,207.5 429.5,208.0 430.0,208.5 430.5,209.0 431.0,209.5 431.5,210.0 432.0,210.5 432.5,211.0 432.5,212.0 433.0,212.5 433.5,213.0 434.0,213.5 434.5,214.0 435.0,214.5 435.5,215.0 436.0,215.5 436.5,216.0 437.0,216.5 437.5,217.0 438.0,217.5 438.5,218.0 439.0,218.5 439.5,219.0 440.0,219.5 440.5,220.0 440.5,221.0 441.0,221.5 441.5,222.0 442.0,222.5 442.5,223.0 442.5,224.0 443.0,224.5 443.5,225.0 444.0,225.5 444.5,226.0 444.5,227.0 445.0,227.5 445.5,228.0 446.0,228.5 446.5,229.0 447.0,229.5 447.5,230.0 448.0,230.5 449.0,230.5 450.0,230.5 451.0,230.5 452.0,230.5 453.0,230.5 453.5,230.0 453.5,229.0 454.0,228.5 454.5,228.0 455.0,227.5 455.5,227.0 455.5,226.0 456.0,225.5 456.5,225.0 456.5,224.0 457.0,223.5 457.5,223.0 457.5,222.0 458.0,221.5 458.5,221.0 458.5,220.0 459.0,219.5 459.5,219.0 459.5,218.0 460.0,217.5 460.5,217.0 460.5,216.0 461.0,215.5 461.5,215.0 461.5,214.0 461.5,213.0 462.0,212.5 462.5,212.0 462.5,211.0 463.0,210.5 463.5,210.0 463.5,209.0 463.5,208.0 464.0,207.5 464.5,207.0 464.5,206.0 465.0,205.5 465.5,205.0 465.5,204.0 465.5,203.0 466.0,202.5 466.5,202.0 466.5,201.0 466.5,200.0 467.0,199.5 467.5,199.0 467.5,198.0 467.5,197.0 468.0,196.5 468.5,196.0 468.5,195.0 468.5,194.0 469.0,193.5 469.5,193.0 469.5,192.0 469.5,191.0 469.5,190.0 470.0,189.5 470.5,189.0 470.5,188.0 470.5,187.0 471.0,186.5 471.5,186.0 471.5,185.0 471.5,184.0 471.5,183.0 472.0,182.5 472.5,182.0 472.5,181.0 472.5,180.0 472.5,179.0 473.0,178.5 473.5,178.0 473.5,177.0 473.5,176.0 473.5,175.0 474.0,174.5 474.5,174.0 474.5,173.0 474.5,172.0 474.5,171.0 475.0,170.5 475.5,170.0 475.5,169.0 475.5,168.0 475.5,167.0 475.5,166.0 476.0,165.5 476.5,165.0 476.5,164.0 476.5,163.0 476.5,162.0 476.5,161.0 477.0,160.5 477.5,160.0 477.5,159.0 477.5,158.0 477.5,157.0 477.5,156.0 477.5,155.0 478.0,154.5 478.5,154.0 478.5,153.0 478.5,152.0 478.5,151.0 478.5,150.0 478.5,149.0 479.0,148.5 479.5,148.0 479.5,147.0 479.5,146.0 479.5,145.0 479.5,144.0 479.5,143.0 480.0,142.5 480.5,142.0 480.5,141.0 480.5,140.0 480.5,139.0 480.5,138.0 480.5,137.0 480.5,136.0 480.5,135.0 481.0,134.5 481.5,134.0 481.5,133.0 481.5,132.0 481.5,131.0 481.5,130.0 481.5,129.0 481.5,128.0 481.5,127.0 481.5,126.0 482.0,125.5 482.5,125.0 482.5,124.0 482.5,123.0 482.5,122.0 482.5,121.0 482.5,120.0 482.5,119.0 482.5,118.0 482.5,117.0 482.5,116.0 482.5,115.0 482.5,114.0 482.5,113.0 482.5,112.0 482.5,111.0 483.0,110.5 483.5,110.0 483.5,109.0 483.5,108.0 483.5,107.0 483.5,106.0 483.5,105.0 483.5,104.0 483.5,103.0 483.5,102.0 483.5,101.0 483.5,100.0 483.5,99.0 483.5,98.0 483.5,97.0 483.5,96.0 483.5,95.0 483.5,94.0 483.5,93.0 483.5,92.0 483.5,91.0 483.0,90.5 482.5,90.0 482.5,89.0 482.5,88.0 482.5,87.0 482.5,86.0 482.5,85.0 482.5,84.0 482.5,83.0 482.5,82.0 482.5,81.0 482.5,80.0 482.5,79.0 482.5,78.0 482.5,77.0 482.5,76.0 482.0,75.5 481.5,75.0 481.5,74.0 481.5,73.0 481.5,72.0 481.5,71.0 481.5,70.0 481.5,69.0 481.0,68.5 480.5,68.0 480.5,67.0 480.5,66.0 480.5,65.0 480.5,64.0 480.5,63.0 480.0,62.5 479.5,62.0 479.5,61.0 479.5,60.0 479.5,59.0 479.5,58.0 479.5,57.0 479.0,56.5 478.5,56.0 478.5,55.0 478.5,54.0 478.5,53.0 478.0,52.5 477.5,52.0 477.5,51.0 477.5,50.0 477.5,49.0 477.5,48.0 477.0,47.5 476.5,47.0 476.5,46.0 476.5,45.0 476.0,44.5 475.5,44.0 475.5,43.0 475.5,42.0 475.5,41.0 475.0,40.5 474.5,40.0 474.5,39.0 474.5,38.0 474.0,37.5 473.5,37.0 473.5,36.0 473.5,35.0 473.0,34.5 472.5,34.0 472.5,33.0 472.5,32.0 472.0,31.5 471.5,31.0 471.5,30.0 471.5,29.0 471.0,28.5 470.5,28.0 470.5,27.0 470.0,26.5 469.5,26.0 469.5,25.0 469.5,24.0 469.0,23.5 468.5,23.0 468.5,22.0 468.0,21.5 467.5,21.0 467.5,20.0 467.0,19.5 466.5,19.0 466.5,18.0 466.5,17.0 466.0,16.5 465.5,16.0 465.5,15.0 465.0,14.5 464.5,14.0 464.5,13.0 464.0,12.5 463.5,12.0 463.5,11.0 463.0,10.5 462.5,10.0 462.5,9.0 462.0,8.5 461.5,8.0 461.5,7.0 461.0,6.5 460.5,6.0 460.5,5.0 460.0,4.5 459.5,4.0 459.5,3.0 459.0,2.5 458.5,2.0 458.0,1.5 457.5,1.0 457.5,0.0 457.0,-0.5 456.5,-1.0 456.5,-2.0 456.0,-2.5 455.5,-3.0 455.0,-3.5 454.5,-4.0 454.5,-5.0 454.0,-5.5 453.5,-6.0 453.0,-6.5 452.5,-7.0 452.5,-8.0 452.0,-8.5 451.5,-9.0 451.0,-9.5 450.5,-10.0 450.5,-11.0 450.0,-11.5 449.5,-12.0 449.0,-12.5 448.5,-13.0 448.5,-14.0 448.0,-14.5 447.5,-15.0 447.0,-15.5 446.5,-16.0 446.0,-16.5 445.5,-17.0 445.5,-18.0 445.0,-18.5 444.5,-19.0 444.0,-19.5 443.5,-20.0 443.0,-20.5 442.5,-21.0 442.5,-22.0 442.0,-22.5 441.5,-23.0 441.0,-23.5 440.5,-24.0 440.0,-24.5 439.5,-25.0 439.0,-25.5 438.5,-26.0 438.0,-26.5 437.5,-27.0 437.0,-27.5 436.5,-28.0 436.0,-28.5 435.5,-29.0 435.0,-29.5 434.5,-30.0 434.0,-30.5 433.5,-31.0 433.0,-31.5 432.5,-32.0 432.0,-32.5 431.5,-33.0 431.0,-33.5 430.5,-34.0 430.0,-34.5 429.5,-35.0 429.0,-35.5 428.5,-36.0 428.0,-36.5 427.5,-37.0 427.0,-37.5 426.0,-37.5 425.5,-38.0 425.0,-38.5 424.5,-39.0 424.0,-39.5 423.5,-40.0 423.0,-40.5 422.5,-41.0 422.0,-41.5 421.0,-41.5 420.5,-42.0 420.0,-42.5 419.5,-43.0 419.0,-43.5 418.5,-44.0 418.0,-44.5 417.0,-44.5 416.5,-45.0 416.0,-45.5 415.5,-46.0 415.0,-46.5 414.0,-46.5 413.5,-47.0 413.0,-47.5 412.5,-48.0 412.0,-48.5 411.0,-48.5 410.5,-49.0 410.0,-49.5 409.5,-50.0 409.0,-50.5 408.0,-50.5 407.5,-51.0 407.0,-51.5 406.5,-52.0 406.0,-52.5 405.0,-52.5 404.5,-53.0 404.0,-53.5 403.0,-53.5 402.5,-54.0 402.0,-54.5 401.5,-55.0 401.0,-55.5 400.0,-55.5 399.5,-56.0 399.0,-56.5 398.0,-56.5 397.5,-57.0 397.0,-57.5 396.0,-57.5 395.5,-58.0 395.0,-58.5 394.0,-58.5 393.5,-59.0 393.0,-59.5 392.0,-59.5 391.5,-60.0 391.0,-60.5 390.0,-60.5 389.5,-61.0 389.0,-61.5 388.0,-61.5 387.5,-62.0 387.0,-62.5 386.0,-62.5 385.5,-63.0 385.0,-63.5 384.0,-63.5 383.0,-63.5 382.5,-64.0 382.0,-64.5 381.0,-64.5 380.5,-65.0 380.0,-65.5 379.0,-65.5 378.5,-66.0 378.0,-66.5 377.0,-66.5 376.0,-66.5 375.5,-67.0 375.0,-67.5 374.0,-67.5 373.5,-68.0 373.0,-68.5 372.0,-68.5 371.0,-68.5 370.5,-69.0 370.0,-69.5 369.0,-69.5 368.5,-70.0 368.0,-70.5 367.0,-70.5 366.0,-70.5 365.5,-71.0 365.0,-71.5 364.0,-71.5 363.0,-71.5 362.5,-72.0 362.0,-72.5 361.0,-72.5 360.0,-72.5 359.5,-73.0 359.0,-73.5 358.0,-73.5 357.0,-73.5 356.5,-74.0 356.0,-74.5 355.0,-74.5 354.0,-74.5 353.5,-75.0 353.0,-75.5 352.0,-75.5 351.0,-75.5 350.5,-76.0 350.0,-76.5 349.0,-76.5 348.0,-76.5 347.5,-77.0 347.0,-77.5 346.0,-77.5 345.0,-77.5 344.5,-78.0 344.0,-78.5 343.0,-78.5 342.0,-78.5 341.0,-78.5 340.5,-79.0 340.0,-79.5 339.0,-79.5 338.5,-80.0 338.0,-80.5 337.0,-80.5 336.0,-80.5 335.5,-81.0 335.0,-81.5 334.0,-81.5 333.0,-81.5 332.5,-82.0 332.0,-82.5 331.0,-82.5 330.5,-83.0 330.0,-83.5 329.0,-83.5 328.0,-83.5 327.5,-84.0 327.0,-84.5 326.0,-84.5 325.5,-85.0 325.0,-85.5 324.5,-86.0 324.0,-86.5 323.0,-86.5 322.5,-87.0 322.0,-87.5 321.5,-88.0 321.0,-88.5 320.5,-89.0 320.0,-89.5 319.5,-90.0 319.0,-90.5 318.5,-91.0 318.5,-92.0 318.0,-92.5 317.5,-93.0 317.5,-94.0 317.5,-95.0 317.0,-95.5 316.5,-96.0 316.5,-97.0 316.5,-98.0 316.5,-99.0 316.0,-99.5 315.5,-100.0 315.5,-101.0 315.5,-102.0 315.5,-103.0 315.5,-104.0 315.5,-105.0 315.5,-106.0 315.5,-107.0 315.5,-108.0 315.0,-108.5 314.5,-109.0 314.5,-110.0 314.5,-111.0 314.5,-112.0 314.0,-112.5 313.5,-113.0 313.5,-114.0 313.0,-114.5 312.0,-114.5 311.5,-115.0 311.0,-115.5" /><polygon fill="url(#grad1)" points="323.5,-57.0 324.0,-56.5 325.0,-56.5 325.5,-56.0 325.5,-55.0 326.0,-54.5 326.5,-54.0 327.0,-53.5 327.5,-53.0 327.5,-52.0 328.0,-51.5 328.5,-51.0 329.0,-50.5 329.5,-50.0 330.0,-49.5 330.5,-49.0 331.0,-48.5 331.5,-48.0 332.0,-47.5 332.5,-47.0 333.0,-46.5 333.5,-46.0 334.0,-45.5 334.5,-45.0 334.5,-44.0 335.0,-43.5 335.5,-43.0 336.0,-42.5 336.5,-42.0 337.0,-41.5 337.5,-41.0 338.0,-40.5 338.5,-40.0 339.0,-39.5 339.5,-39.0 340.0,-38.5 340.5,-38.0 341.0,-37.5 341.5,-37.0 342.0,-36.5 342.5,-36.0 343.0,-35.5 343.5,-35.0 344.0,-34.5 344.5,-34.0 345.0,-33.5 345.5,-33.0 346.0,-32.5 346.5,-32.0 347.0,-31.5 348.0,-31.5 348.5,-31.0 349.0,-30.5 349.5,-30.0 350.0,-29.5 350.5,-29.0 351.0,-28.5 351.5,-28.0 352.0,-27.5 352.5,-27.0 353.0,-26.5 353.5,-26.0 354.0,-25.5 354.5,-25.0 355.0,-24.5 355.5,-24.0 356.0,-23.5 357.0,-23.5 357.5,-23.0 358.0,-22.5 358.5,-22.0 359.0,-21.5 359.5,-21.0 360.0,-20.5 360.5,-20.0 361.0,-19.5 361.5,-19.0 362.0,-18.5 362.5,-18.0 363.0,-17.5 363.5,-17.0 364.0,-16.5 365.0,-16.5 365.5,-16.0 366.0,-15.5 366.5,-15.0 367.0,-14.5 367.5,-14.0 368.0,-13.5 368.5,-13.0 369.0,-12.5 369.5,-12.0 370.0,-11.5 371.0,-11.5 371.5,-11.0 372.0,-10.5 372.5,-10.0 373.0,-9.5 373.5,-9.0 374.0,-8.5 374.5,-8.0 375.0,-7.5 375.5,-7.0 376.0,-6.5 377.0,-6.5 377.5,-6.0 378.0,-5.5 378.5,-5.0 379.0,-4.5 379.5,-4.0 380.0,-3.5 381.0,-3.5 381.5,-3.0 382.0,-2.5 382.5,-2.0 383.0,-1.5 383.5,-1.0 384.0,-0.5 384.5,0.0 385.0,0.5 385.5,1.0 386.0,1.5 387.0,1.5 387.5,2.0 388.0,2.5 388.5,3.0 389.0,3.5 389.5,4.0 390.0,4.5 391.0,4.5 391.5,5.0 392.0,5.5 392.5,6.0 393.0,6.5 393.5,7.0 394.0,7.5 395.0,7.5 395.5,8.0 396.0,8.5 396.5,9.0 397.0,9.5 397.5,10.0 398.0,10.5 399.0,10.5 399.5,11.0 400.0,11.5 400.5,12.0 401.0,12.5 401.5,13.0 402.0,13.5 403.0,13.5 403.5,14.0 404.0,14.5 404.5,15.0 405.0,15.5 405.5,16.0 406.0,16.5 407.0,16.5 407.5,17.0 408.0,17.5 408.5,18.0 409.0,18.5 409.5,19.0 410.0,19.5 411.0,19.5 411.5,20.0 412.0,20.5 412.5,21.0 413.0,21.5 413.5,22.0 414.0,22.5 414.5,23.0 415.0,23.5 416.0,23.5 416.5,24.0 417.0,24.5 417.5,25.0 418.0,25.5 418.5,26.0 419.0,26.5 420.0,26.5 420.5,27.0 421.0,27.5 421.5,28.0 422.0,28.5 422.5,29.0 423.0,29.5 424.0,29.5 424.5,30.0 425.0,30.5 425.5,31.0 426.0,31.5 426.5,31.0 427.0,30.5 428.0,30.5 429.0,30.5 430.0,30.5 431.0,30.5 432.0,30.5 433.0,30.5 434.0,30.5 435.0,30.5 436.0,30.5 437.0,30.5 438.0,30.5 439.0,30.5 440.0,30.5 441.0,30.5 442.0,30.5 443.0,30.5 444.0,30.5 445.0,30.5 446.0,30.5 447.0,30.5 447.5,31.0 448.0,31.5 449.0,31.5 449.5,32.0 450.0,32.5 450.5,33.0 450.5,34.0 451.0,34.5 451.5,35.0 451.5,36.0 451.5,37.0 451.5,38.0 451.5,39.0 451.5,40.0 451.5,41.0 451.5,42.0 451.5,43.0 451.5,44.0 451.5,45.0 451.5,46.0 451.5,47.0 451.5,48.0 451.5,49.0 451.5,50.0 451.5,51.0 451.5,52.0 451.5,53.0 451.5,54.0 451.5,55.0 451.5,56.0 451.5,57.0 451.0,57.5 450.5,58.0 450.0,58.5 449.5,59.0 449.0,59.5 448.5,60.0 448.0,60.5 447.0,60.5 446.0,60.5 445.5,61.0 445.0,61.5 444.0,61.5 443.0,61.5 442.0,61.5 441.0,61.5 440.0,61.5 439.0,61.5 438.0,61.5 437.0,61.5 436.0,61.5 435.0,61.5 434.0,61.5 433.0,61.5 432.0,61.5 431.0,61.5 430.0,61.5 429.0,61.5 428.0,61.5 427.5,61.0 427.0,60.5 426.0,60.5 425.5,60.0 425.0,59.5 424.0,59.5 423.5,59.0 423.5,58.0 423.0,57.5 422.5,57.0 422.5,56.0 422.0,55.5 421.5,55.0 421.5,54.0 421.5,53.0 421.5,52.0 421.5,51.0 421.5,50.0 421.5,49.0 421.5,48.0 421.5,47.0 421.5,46.0 421.5,45.0 421.5,44.0 421.5,43.0 421.5,42.0 421.5,41.0 421.5,40.0 421.0,39.5 420.5,39.0 420.0,38.5 419.0,38.5 418.5,38.0 418.0,37.5 417.5,37.0 417.0,36.5 416.0,36.5 415.5,36.0 415.0,35.5 414.5,35.0 414.0,34.5 413.5,34.0 413.0,33.5 412.0,33.5 411.5,33.0 411.0,32.5 410.5,32.0 410.0,31.5 409.5,31.0 409.0,30.5 408.0,30.5 407.5,30.0 407.0,29.5 406.5,29.0 406.0,28.5 405.5,28.0 405.0,27.5 404.0,27.5 403.5,27.0 403.0,26.5 402.5,26.0 402.0,25.5 401.5,25.0 401.0,24.5 400.5,24.0 400.0,23.5 399.0,23.5 398.5,23.0 398.0,22.5 397.5,22.0 397.0,21.5 396.5,21.0 396.0,20.5 395.5,20.0 395.0,19.5 394.0,19.5 393.5,19.0 393.0,18.5 392.5,18.0 392.0,17.5 391.5,17.0 391.0,16.5 390.5,16.0 390.0,15.5 389.5,16.0 389.5,17.0 389.5,18.0 389.5,19.0 389.5,20.0 389.5,21.0 389.5,22.0 389.5,23.0 389.5,24.0 389.5,25.0 389.5,26.0 389.5,27.0 389.5,28.0 389.5,29.0 389.5,30.0 389.5,31.0 389.5,32.0 389.5,33.0 389.5,34.0 389.5,35.0 389.5,36.0 389.5,37.0 389.5,38.0 389.5,39.0 389.5,40.0 389.5,41.0 389.5,42.0 389.5,43.0 389.5,44.0 389.5,45.0 389.5,46.0 389.5,47.0 389.5,48.0 389.5,49.0 390.0,49.5 390.5,50.0 391.0,50.5 391.5,51.0 391.5,52.0 392.0,52.5 392.5,53.0 393.0,53.5 393.5,54.0 394.0,54.5 394.5,55.0 395.0,55.5 395.5,56.0 396.0,56.5 396.5,57.0 397.0,57.5 397.5,58.0 397.5,59.0 398.0,59.5 398.5,60.0 399.0,60.5 399.5,61.0 400.0,61.5 400.5,62.0 401.0,62.5 401.5,63.0 402.0,63.5 402.5,64.0 403.0,64.5 403.5,65.0 404.0,65.5 404.5,66.0 405.0,66.5 405.5,67.0 406.0,67.5 406.5,68.0 407.0,68.5 407.5,69.0 408.0,69.5 408.5,70.0 409.0,70.5 409.5,71.0 410.0,71.5 410.5,72.0 411.0,72.5 411.5,73.0 412.0,73.5 413.0,73.5 413.5,74.0 414.0,74.5 414.5,75.0 415.0,75.5 415.5,76.0 416.0,76.5 416.5,77.0 417.0,77.5 417.5,78.0 418.0,78.5 418.5,79.0 419.0,79.5 419.5,80.0 420.0,80.5 420.5,81.0 421.0,81.5 421.5,82.0 422.0,82.5 422.5,83.0 423.0,83.5 423.5,84.0 424.0,84.5 424.5,85.0 425.0,85.5 425.5,86.0 426.0,86.5 426.5,87.0 427.0,87.5 427.5,88.0 428.0,88.5 428.5,89.0 428.5,90.0 429.0,90.5 429.5,91.0 430.0,91.5 430.5,92.0 430.5,93.0 431.0,93.5 431.5,94.0 431.5,95.0 432.0,95.5 432.5,96.0 432.5,97.0 433.0,97.5 433.5,98.0 433.5,99.0 433.5,100.0 434.0,100.5 434.5,101.0 434.5,102.0 434.5,103.0 435.0,103.5 435.5,104.0 435.5,105.0 435.5,106.0 435.5,107.0 436.0,107.5 436.5,108.0 436.5,109.0 436.5,110.0 436.5,111.0 436.5,112.0 436.5,113.0 436.5,114.0 436.5,115.0 437.0,115.5 438.0,115.5 439.0,115.5 440.0,115.5 441.0,115.5 442.0,115.5 443.0,115.5 444.0,115.5 444.5,116.0 445.0,116.5 445.5,117.0 446.0,117.5 446.5,118.0 447.0,118.5 447.5,119.0 447.5,120.0 448.0,120.5 448.5,121.0 448.5,122.0 448.5,123.0 448.5,124.0 448.5,125.0 448.5,126.0 448.5,127.0 448.5,128.0 448.5,129.0 448.5,130.0 448.5,131.0 448.5,132.0 448.5,133.0 448.5,134.0 448.5,135.0 448.5,136.0 448.5,137.0 448.5,138.0 448.5,139.0 448.5,140.0 448.5,141.0 448.0,141.5 447.5,142.0 447.5,143.0 447.0,143.5 446.5,144.0 446.0,144.5 445.5,145.0 445.0,145.5 444.0,145.5 443.0,145.5 442.0,145.5 441.0,145.5 440.5,146.0 440.0,146.5 439.0,146.5 438.0,146.5 437.0,146.5 436.0,146.5 435.0,146.5 434.0,146.5 433.0,146.5 432.0,146.5 431.0,146.5 430.0,146.5 429.0,146.5 428.0,146.5 427.0,146.5 426.0,146.5 425.0,146.5 424.5,146.0 424.0,145.5 423.0,145.5 422.0,145.5 421.5,145.0 421.0,144.5 420.5,144.0 420.0,143.5 419.5,143.0 419.5,142.0 419.0,141.5 418.5,141.0 418.5,140.0 418.5,139.0 418.5,138.0 418.5,137.0 418.5,136.0 418.5,135.0 418.5,134.0 418.5,133.0 418.5,132.0 418.5,131.0 418.5,130.0 418.5,129.0 418.5,128.0 418.5,127.0 418.5,126.0 418.5,125.0 418.5,124.0 418.5,123.0 418.5,122.0 418.5,121.0 419.0,120.5 419.5,120.0 419.5,119.0 420.0,118.5 420.5,118.0 421.0,117.5 421.5,117.0 422.0,116.5 423.0,116.5 423.5,116.0 424.0,115.5 425.0,115.5 426.0,115.5 426.5,115.0 427.0,114.5 427.5,114.0 427.0,113.5 426.5,113.0 426.5,112.0 426.5,111.0 426.5,110.0 426.5,109.0 426.5,108.0 426.5,107.0 426.5,106.0 426.0,105.5 425.5,105.0 425.5,104.0 425.5,103.0 425.0,102.5 424.5,102.0 424.5,101.0 424.0,100.5 423.5,100.0 423.5,99.0 423.0,98.5 422.5,98.0 422.5,97.0 422.0,96.5 421.5,96.0 421.0,95.5 420.5,95.0 420.5,94.0 420.0,93.5 419.5,93.0 419.0,92.5 418.5,92.0 418.0,91.5 417.5,91.0 417.0,90.5 416.5,90.0 416.0,89.5 415.5,89.0 415.0,88.5 414.5,88.0 414.0,87.5 413.5,87.0 413.0,86.5 412.5,86.0 412.0,85.5 411.5,85.0 411.0,84.5 410.5,84.0 410.0,83.5 409.5,83.0 409.0,82.5 408.0,82.5 407.5,82.0 407.0,81.5 406.5,81.0 406.0,80.5 405.5,80.0 405.0,79.5 404.5,79.0 404.0,78.5 403.5,78.0 403.0,77.5 402.5,77.0 402.0,76.5 401.5,76.0 401.0,75.5 400.5,75.0 400.0,74.5 399.5,74.0 399.0,73.5 398.5,73.0 398.0,72.5 397.5,72.0 397.0,71.5 396.5,71.0 396.0,70.5 395.5,70.0 395.0,69.5 394.5,69.0 394.0,68.5 393.5,68.0 393.0,67.5 392.5,67.0 392.0,66.5 391.5,66.0 391.0,65.5 390.5,65.0 390.5,64.0 390.0,63.5 389.5,63.0 389.0,62.5 388.5,62.0 388.0,61.5 387.5,61.0 387.0,60.5 386.5,60.0 386.0,59.5 385.5,59.0 385.0,58.5 384.5,58.0 384.5,57.0 384.0,56.5 383.5,56.0 383.0,55.5 382.5,55.0 382.5,54.0 382.0,53.5 381.5,53.0 381.5,52.0 381.0,51.5 380.5,51.0 380.5,50.0 380.5,49.0 380.5,48.0 380.5,47.0 380.5,46.0 380.5,45.0 380.5,44.0 380.5,43.0 380.5,42.0 380.5,41.0 380.5,40.0 380.5,39.0 380.5,38.0 380.5,37.0 380.5,36.0 380.5,35.0 380.5,34.0 380.5,33.0 380.5,32.0 380.5,31.0 380.5,30.0 380.5,29.0 380.5,28.0 380.5,27.0 380.5,26.0 380.5,25.0 380.5,24.0 380.5,23.0 380.5,22.0 380.5,21.0 380.5,20.0 380.5,19.0 380.5,18.0 380.5,17.0 380.5,16.0 380.5,15.0 380.5,14.0 380.5,13.0 380.5,12.0 380.5,11.0 380.5,10.0 380.5,9.0 380.5,8.0 380.0,7.5 379.5,7.0 379.0,6.5 378.5,6.0 378.0,5.5 377.0,5.5 376.5,5.0 376.0,4.5 375.5,4.0 375.0,3.5 374.5,3.0 374.0,2.5 373.5,2.0 373.0,1.5 372.0,1.5 371.5,1.0 371.0,0.5 370.5,0.0 370.0,-0.5 369.5,-1.0 369.0,-1.5 368.5,-2.0 368.0,-2.5 367.5,-3.0 367.0,-3.5 366.0,-3.5 365.5,-4.0 365.0,-4.5 364.5,-5.0 364.0,-5.5 363.5,-6.0 363.0,-6.5 362.5,-7.0 362.0,-7.5 361.0,-7.5 360.5,-8.0 360.0,-8.5 359.5,-9.0 359.0,-9.5 358.5,-10.0 358.0,-10.5 357.5,-11.0 357.0,-11.5 356.5,-12.0 356.0,-12.5 355.5,-13.0 355.0,-13.5 354.0,-13.5 353.5,-14.0 353.0,-14.5 352.5,-15.0 352.0,-15.5 351.5,-16.0 351.0,-16.5 350.5,-17.0 350.0,-17.5 349.5,-18.0 349.0,-18.5 348.5,-19.0 348.0,-19.5 347.5,-20.0 347.0,-20.5 346.5,-21.0 346.0,-21.5 345.5,-22.0 345.0,-22.5 344.5,-23.0 344.0,-23.5 343.5,-24.0 343.0,-24.5 342.5,-25.0 342.0,-25.5 341.5,-26.0 341.0,-26.5 340.5,-27.0 340.0,-27.5 339.5,-28.0 339.0,-28.5 338.5,-29.0 338.0,-29.5 337.5,-30.0 337.0,-30.5 336.5,-31.0 336.0,-31.5 335.5,-32.0 335.0,-32.5 334.5,-33.0 334.5,-34.0 334.0,-34.5 333.5,-35.0 333.0,-35.5 332.5,-36.0 332.0,-36.5 331.5,-37.0 331.5,-38.0 331.0,-38.5 330.5,-39.0 330.0,-39.5 329.5,-40.0 329.0,-40.5 328.5,-41.0 328.5,-42.0 328.0,-42.5 327.5,-43.0 327.5,-44.0 327.0,-44.5 326.5,-45.0 326.0,-45.5 325.5,-46.0 325.5,-47.0 325.0,-47.5 324.5,-48.0 324.5,-49.0 324.0,-49.5 323.5,-50.0 323.5,-51.0 323.5,-52.0 323.0,-52.5 322.5,-53.0 322.5,-54.0 322.0,-54.5 321.5,-55.0 321.5,-56.0 322.0,-56.5 322.5,-57.0 323.0,-57.5 323.5,-57.0" /><polygon fill="url(#grad1)" points="438.0,125.5 437.0,125.5 436.0,125.5 435.0,125.5 434.0,125.5 433.0,125.5 432.0,125.5 431.0,125.5 430.0,125.5 429.0,125.5 428.5,126.0 428.5,127.0 428.5,128.0 428.5,129.0 428.5,130.0 428.5,131.0 428.5,132.0 428.5,133.0 428.5,134.0 428.5,135.0 428.5,136.0 429.0,136.5 430.0,136.5 431.0,136.5 432.0,136.5 433.0,136.5 434.0,136.5 435.0,136.5 436.0,136.5 437.0,136.5 438.0,136.5 438.5,136.0 438.5,135.0 438.5,134.0 438.5,133.0 438.5,132.0 438.5,131.0 438.5,130.0 438.5,129.0 438.5,128.0 438.5,127.0 438.5,126.0 438.0,125.5" /><polygon fill="url(#grad1)" points="442.0,40.5 441.0,40.5 440.0,40.5 439.0,40.5 438.0,40.5 437.0,40.5 436.0,40.5 435.0,40.5 434.0,40.5 433.0,40.5 432.0,40.5 431.5,41.0 431.5,42.0 431.5,43.0 431.5,44.0 431.5,45.0 431.5,46.0 431.5,47.0 431.5,48.0 431.5,49.0 431.5,50.0 431.5,51.0 432.0,51.5 433.0,51.5 434.0,51.5 435.0,51.5 436.0,51.5 437.0,51.5 438.0,51.5 439.0,51.5 440.0,51.5 441.0,51.5 442.0,51.5 442.5,51.0 442.5,50.0 442.5,49.0 442.5,48.0 442.5,47.0 442.5,46.0 442.5,45.0 442.5,44.0 442.5,43.0 442.5,42.0 442.5,41.0 442.0,40.5" /><polygon fill="url(#grad1)" points="770.0,-217.5 769.0,-217.5 768.0,-217.5 767.0,-217.5 766.0,-217.5 765.0,-217.5 764.0,-217.5 763.0,-217.5 762.0,-217.5 761.0,-217.5 760.0,-217.5 759.0,-217.5 758.0,-217.5 757.5,-217.0 757.5,-216.0 757.5,-215.0 757.5,-214.0 757.5,-213.0 757.5,-212.0 757.5,-211.0 757.5,-210.0 757.5,-209.0 757.5,-208.0 757.5,-207.0 757.5,-206.0 757.5,-205.0 757.5,-204.0 757.5,-203.0 757.5,-202.0 757.5,-201.0 757.5,-200.0 757.5,-199.0 757.5,-198.0 757.5,-197.0 757.5,-196.0 757.5,-195.0 757.5,-194.0 757.5,-193.0 757.5,-192.0 757.5,-191.0 757.5,-190.0 757.5,-189.0 757.5,-188.0 757.5,-187.0 757.5,-186.0 757.5,-185.0 757.5,-184.0 757.5,-183.0 757.5,-182.0 757.5,-181.0 757.5,-180.0 757.5,-179.0 757.5,-178.0 757.5,-177.0 757.5,-176.0 757.5,-175.0 757.5,-174.0 757.5,-173.0 757.5,-172.0 757.5,-171.0 757.5,-170.0 757.5,-169.0 757.0,-168.5 756.0,-168.5 755.0,-168.5 754.0,-168.5 753.0,-168.5 752.0,-168.5 751.0,-168.5 750.0,-168.5 749.0,-168.5 748.0,-168.5 747.5,-168.0 747.5,-167.0 747.5,-166.0 747.5,-165.0 747.5,-164.0 747.5,-163.0 747.5,-162.0 747.5,-161.0 747.5,-160.0 747.5,-159.0 747.5,-158.0 748.0,-157.5 749.0,-157.5 750.0,-157.5 751.0,-157.5 752.0,-157.5 753.0,-157.5 754.0,-157.5 755.0,-157.5 756.0,-157.5 757.0,-157.5 757.5,-157.0 757.5,-156.0 757.5,-155.0 757.5,-154.0 757.5,-153.0 757.5,-152.0 757.5,-151.0 757.5,-150.0 757.5,-149.0 757.5,-148.0 757.5,-147.0 757.5,-146.0 757.5,-145.0 757.5,-144.0 757.5,-143.0 758.0,-142.5 758.5,-142.0 758.5,-141.0 759.0,-140.5 759.5,-140.0 759.5,-139.0 760.0,-138.5 760.5,-138.0 760.5,-137.0 761.0,-136.5 761.5,-136.0 762.0,-135.5 762.5,-135.0 763.0,-134.5 764.0,-134.5 764.5,-134.0 765.0,-133.5 765.5,-133.0 766.0,-132.5 767.0,-132.5 768.0,-132.5 768.5,-132.0 769.0,-131.5 770.0,-131.5 771.0,-131.5 771.5,-131.0 772.0,-130.5 773.0,-130.5 774.0,-130.5 775.0,-130.5 776.0,-130.5 777.0,-130.5 778.0,-130.5 779.0,-130.5 780.0,-130.5 781.0,-130.5 782.0,-130.5 783.0,-130.5 784.0,-130.5 784.5,-131.0 784.5,-132.0 784.5,-133.0 784.5,-134.0 784.5,-135.0 784.5,-136.0 784.5,-137.0 784.5,-138.0 784.5,-139.0 784.5,-140.0 784.5,-141.0 784.5,-142.0 784.0,-142.5 783.5,-142.0 783.0,-141.5 782.0,-141.5 781.0,-141.5 780.0,-141.5 779.0,-141.5 778.0,-141.5 777.0,-141.5 776.5,-142.0 776.0,-142.5 775.0,-142.5 774.0,-142.5 773.5,-143.0 773.0,-143.5 772.5,-144.0 772.0,-144.5 771.5,-145.0 771.5,-146.0 771.0,-146.5 770.5,-147.0 770.5,-148.0 770.5,-149.0 770.5,-150.0 770.5,-151.0 770.5,-152.0 770.5,-153.0 770.5,-154.0 770.5,-155.0 770.5,-156.0 770.5,-157.0 771.0,-157.5 772.0,-157.5 773.0,-157.5 774.0,-157.5 775.0,-157.5 776.0,-157.5 777.0,-157.5 778.0,-157.5 779.0,-157.5 780.0,-157.5 781.0,-157.5 782.0,-157.5 783.0,-157.5 784.0,-157.5 785.0,-157.5 785.5,-158.0 785.5,-159.0 785.5,-160.0 785.5,-161.0 785.5,-162.0 785.5,-163.0 785.5,-164.0 785.5,-165.0 785.5,-166.0 785.5,-167.0 785.5,-168.0 785.0,-168.5 784.0,-168.5 783.0,-168.5 782.0,-168.5 781.0,-168.5 780.0,-168.5 779.0,-168.5 778.0,-168.5 777.0,-168.5 776.0,-168.5 775.0,-168.5 774.0,-168.5 773.0,-168.5 772.0,-168.5 771.0,-168.5 770.5,-169.0 770.5,-170.0 770.5,-171.0 770.5,-172.0 770.5,-173.0 770.5,-174.0 770.5,-175.0 770.5,-176.0 770.5,-177.0 770.5,-178.0 770.5,-179.0 770.5,-180.0 770.5,-181.0 770.5,-182.0 770.5,-183.0 770.5,-184.0 770.5,-185.0 770.5,-186.0 770.5,-187.0 770.5,-188.0 770.5,-189.0 770.5,-190.0 770.5,-191.0 770.5,-192.0 770.5,-193.0 770.5,-194.0 770.5,-195.0 770.5,-196.0 770.5,-197.0 770.5,-198.0 770.5,-199.0 770.5,-200.0 770.5,-201.0 770.5,-202.0 770.5,-203.0 770.5,-204.0 770.5,-205.0 770.5,-206.0 770.5,-207.0 770.5,-208.0 770.5,-209.0 770.5,-210.0 770.5,-211.0 770.5,-212.0 770.5,-213.0 770.5,-214.0 770.5,-215.0 770.5,-216.0 770.5,-217.0 770.0,-217.5" /><polygon fill="url(#grad1)" points="284.0,-219.5 283.0,-219.5 282.0,-219.5 281.0,-219.5 280.0,-219.5 279.5,-219.0 279.0,-218.5 278.0,-218.5 277.0,-218.5 276.0,-218.5 275.0,-218.5 274.0,-218.5 273.0,-218.5 272.5,-218.0 272.0,-217.5 271.0,-217.5 270.0,-217.5 269.0,-217.5 268.5,-217.0 268.0,-216.5 267.0,-216.5 266.0,-216.5 265.5,-216.0 265.0,-215.5 264.0,-215.5 263.5,-215.0 263.0,-214.5 262.0,-214.5 261.5,-214.0 261.0,-213.5 260.0,-213.5 259.5,-213.0 259.0,-212.5 258.0,-212.5 257.5,-212.0 257.0,-211.5 256.5,-211.0 256.0,-210.5 255.5,-210.0 255.0,-209.5 254.5,-209.0 254.0,-208.5 253.5,-208.0 253.0,-207.5 252.0,-207.5 251.5,-207.0 251.5,-206.0 251.0,-205.5 250.5,-205.0 250.0,-204.5 249.5,-204.0 249.0,-203.5 248.5,-203.0 248.0,-202.5 247.5,-202.0 247.5,-201.0 247.0,-200.5 246.5,-200.0 246.0,-199.5 245.5,-199.0 245.5,-198.0 245.0,-197.5 244.5,-197.0 244.5,-196.0 244.0,-195.5 243.5,-195.0 243.5,-194.0 243.5,-193.0 243.0,-192.5 242.5,-192.0 242.5,-191.0 242.5,-190.0 242.0,-189.5 241.5,-189.0 241.5,-188.0 241.5,-187.0 241.0,-186.5 240.5,-186.0 240.5,-185.0 240.5,-184.0 240.5,-183.0 240.5,-182.0 240.5,-181.0 240.0,-180.5 239.5,-180.0 239.5,-179.0 239.5,-178.0 239.5,-177.0 239.5,-176.0 239.5,-175.0 239.5,-174.0 239.5,-173.0 239.5,-172.0 240.0,-171.5 240.5,-171.0 240.5,-170.0 240.5,-169.0 240.5,-168.0 240.5,-167.0 240.5,-166.0 240.5,-165.0 241.0,-164.5 241.5,-164.0 241.5,-163.0 241.5,-162.0 242.0,-161.5 242.5,-161.0 242.5,-160.0 242.5,-159.0 243.0,-158.5 243.5,-158.0 243.5,-157.0 244.0,-156.5 244.5,-156.0 244.5,-155.0 245.0,-154.5 245.5,-154.0 245.5,-153.0 246.0,-152.5 246.5,-152.0 246.5,-151.0 247.0,-150.5 247.5,-150.0 248.0,-149.5 248.5,-149.0 248.5,-148.0 249.0,-147.5 249.5,-147.0 250.0,-146.5 250.5,-146.0 251.0,-145.5 251.5,-145.0 252.0,-144.5 252.5,-144.0 253.0,-143.5 253.5,-143.0 254.0,-142.5 254.5,-142.0 255.0,-141.5 255.5,-141.0 256.0,-140.5 257.0,-140.5 257.5,-140.0 258.0,-139.5 258.5,-139.0 259.0,-138.5 260.0,-138.5 260.5,-138.0 261.0,-137.5 262.0,-137.5 262.5,-137.0 263.0,-136.5 264.0,-136.5 264.5,-136.0 265.0,-135.5 266.0,-135.5 266.5,-135.0 267.0,-134.5 268.0,-134.5 269.0,-134.5 269.5,-134.0 270.0,-133.5 271.0,-133.5 272.0,-133.5 273.0,-133.5 274.0,-133.5 274.5,-133.0 275.0,-132.5 276.0,-132.5 277.0,-132.5 278.0,-132.5 279.0,-132.5 280.0,-132.5 281.0,-132.5 282.0,-132.5 283.0,-132.5 284.0,-132.5 285.0,-132.5 286.0,-132.5 287.0,-132.5 288.0,-132.5 289.0,-132.5 289.5,-133.0 290.0,-133.5 291.0,-133.5 292.0,-133.5 293.0,-133.5 293.5,-134.0 294.0,-134.5 295.0,-134.5 296.0,-134.5 296.5,-135.0 297.0,-135.5 298.0,-135.5 298.5,-136.0 299.0,-136.5 300.0,-136.5 301.0,-136.5 301.5,-137.0 302.0,-137.5 303.0,-137.5 303.5,-138.0 304.0,-138.5 304.5,-139.0 305.0,-139.5 306.0,-139.5 306.5,-140.0 307.0,-140.5 307.5,-141.0 308.0,-141.5 308.5,-142.0 309.0,-142.5 310.0,-142.5 310.5,-143.0 310.5,-144.0 311.0,-144.5 311.5,-145.0 312.0,-145.5 312.5,-146.0 313.0,-146.5 313.5,-147.0 314.0,-147.5 314.5,-148.0 315.0,-148.5 315.5,-149.0 315.5,-150.0 316.0,-150.5 316.5,-151.0 316.5,-152.0 316.0,-152.5 315.0,-152.5 314.5,-153.0 314.0,-153.5 313.0,-153.5 312.5,-154.0 312.0,-154.5 311.0,-154.5 310.5,-155.0 310.0,-155.5 309.0,-155.5 308.5,-156.0 308.0,-156.5 307.0,-156.5 306.5,-157.0 306.0,-157.5 305.0,-157.5 304.5,-157.0 304.5,-156.0 304.0,-155.5 303.5,-155.0 303.0,-154.5 302.5,-154.0 302.0,-153.5 301.5,-153.0 301.5,-152.0 301.0,-151.5 300.0,-151.5 299.5,-151.0 299.0,-150.5 298.5,-150.0 298.0,-149.5 297.5,-149.0 297.0,-148.5 296.0,-148.5 295.5,-148.0 295.0,-147.5 294.0,-147.5 293.0,-147.5 292.5,-147.0 292.0,-146.5 291.0,-146.5 290.0,-146.5 289.0,-146.5 288.5,-146.0 288.0,-145.5 287.0,-145.5 286.0,-145.5 285.0,-145.5 284.0,-145.5 283.0,-145.5 282.0,-145.5 281.0,-145.5 280.0,-145.5 279.0,-145.5 278.0,-145.5 277.0,-145.5 276.0,-145.5 275.5,-146.0 275.0,-146.5 274.0,-146.5 273.0,-146.5 272.5,-147.0 272.0,-147.5 271.0,-147.5 270.0,-147.5 269.5,-148.0 269.0,-148.5 268.5,-149.0 268.0,-149.5 267.0,-149.5 266.5,-150.0 266.0,-150.5 265.5,-151.0 265.0,-151.5 264.0,-151.5 263.5,-152.0 263.0,-152.5 262.5,-153.0 262.0,-153.5 261.5,-154.0 261.0,-154.5 260.5,-155.0 260.5,-156.0 260.0,-156.5 259.5,-157.0 259.0,-157.5 258.5,-158.0 258.5,-159.0 258.0,-159.5 257.5,-160.0 257.5,-161.0 257.0,-161.5 256.5,-162.0 256.5,-163.0 256.0,-163.5 255.5,-164.0 255.5,-165.0 255.5,-166.0 255.0,-166.5 254.5,-167.0 254.5,-168.0 254.5,-169.0 254.5,-170.0 254.5,-171.0 254.0,-171.5 253.5,-172.0 253.5,-173.0 253.5,-174.0 253.5,-175.0 253.5,-176.0 253.5,-177.0 253.5,-178.0 253.5,-179.0 254.0,-179.5 254.5,-180.0 254.5,-181.0 254.5,-182.0 254.5,-183.0 254.5,-184.0 255.0,-184.5 255.5,-185.0 255.5,-186.0 255.5,-187.0 256.0,-187.5 256.5,-188.0 256.5,-189.0 256.5,-190.0 257.0,-190.5 257.5,-191.0 257.5,-192.0 258.0,-192.5 258.5,-193.0 258.5,-194.0 259.0,-194.5 259.5,-195.0 260.0,-195.5 260.5,-196.0 261.0,-196.5 261.5,-197.0 261.5,-198.0 262.0,-198.5 262.5,-199.0 263.0,-199.5 263.5,-200.0 264.0,-200.5 265.0,-200.5 265.5,-201.0 266.0,-201.5 266.5,-202.0 267.0,-202.5 268.0,-202.5 268.5,-203.0 269.0,-203.5 270.0,-203.5 270.5,-204.0 271.0,-204.5 272.0,-204.5 273.0,-204.5 273.5,-205.0 274.0,-205.5 275.0,-205.5 276.0,-205.5 277.0,-205.5 277.5,-206.0 278.0,-206.5 279.0,-206.5 280.0,-206.5 281.0,-206.5 282.0,-206.5 283.0,-206.5 284.0,-206.5 285.0,-206.5 286.0,-206.5 286.5,-206.0 287.0,-205.5 288.0,-205.5 289.0,-205.5 290.0,-205.5 291.0,-205.5 291.5,-205.0 292.0,-204.5 293.0,-204.5 293.5,-204.0 294.0,-203.5 295.0,-203.5 296.0,-203.5 296.5,-203.0 297.0,-202.5 298.0,-202.5 298.5,-202.0 299.0,-201.5 299.5,-201.0 300.0,-200.5 301.0,-200.5 301.5,-200.0 302.0,-199.5 302.5,-199.0 303.0,-198.5 303.5,-198.0 303.5,-197.0 303.5,-196.0 303.5,-195.0 303.5,-194.0 303.5,-193.0 303.5,-192.0 303.5,-191.0 303.5,-190.0 303.5,-189.0 303.5,-188.0 303.5,-187.0 303.5,-186.0 303.5,-185.0 303.0,-184.5 302.0,-184.5 301.0,-184.5 300.0,-184.5 299.0,-184.5 298.0,-184.5 297.0,-184.5 296.0,-184.5 295.0,-184.5 294.0,-184.5 293.0,-184.5 292.0,-184.5 291.0,-184.5 290.0,-184.5 289.0,-184.5 288.0,-184.5 287.0,-184.5 286.0,-184.5 285.0,-184.5 284.0,-184.5 283.0,-184.5 282.0,-184.5 281.5,-184.0 281.0,-183.5 280.5,-183.0 280.5,-182.0 280.5,-181.0 280.5,-180.0 280.5,-179.0 280.5,-178.0 280.5,-177.0 280.5,-176.0 280.5,-175.0 280.5,-174.0 280.5,-173.0 281.0,-172.5 282.0,-172.5 283.0,-172.5 284.0,-172.5 285.0,-172.5 286.0,-172.5 287.0,-172.5 288.0,-172.5 289.0,-172.5 290.0,-172.5 291.0,-172.5 292.0,-172.5 293.0,-172.5 294.0,-172.5 295.0,-172.5 296.0,-172.5 297.0,-172.5 298.0,-172.5 299.0,-172.5 300.0,-172.5 301.0,-172.5 302.0,-172.5 303.0,-172.5 304.0,-172.5 305.0,-172.5 306.0,-172.5 307.0,-172.5 308.0,-172.5 309.0,-172.5 310.0,-172.5 311.0,-172.5 312.0,-172.5 313.0,-172.5 314.0,-172.5 315.0,-172.5 316.0,-172.5 316.5,-173.0 316.5,-174.0 316.5,-175.0 316.5,-176.0 316.5,-177.0 316.5,-178.0 316.5,-179.0 316.5,-180.0 316.5,-181.0 316.5,-182.0 316.5,-183.0 316.5,-184.0 316.5,-185.0 316.5,-186.0 316.5,-187.0 316.5,-188.0 316.5,-189.0 316.5,-190.0 316.5,-191.0 316.5,-192.0 316.5,-193.0 316.5,-194.0 316.5,-195.0 316.5,-196.0 316.5,-197.0 316.5,-198.0 316.5,-199.0 316.5,-200.0 316.5,-201.0 316.5,-202.0 316.5,-203.0 316.5,-204.0 316.0,-204.5 315.5,-205.0 315.0,-205.5 314.0,-205.5 313.5,-206.0 313.0,-206.5 312.5,-207.0 312.0,-207.5 311.5,-208.0 311.0,-208.5 310.5,-209.0 310.0,-209.5 309.5,-210.0 309.0,-210.5 308.0,-210.5 307.5,-211.0 307.0,-211.5 306.5,-212.0 306.0,-212.5 305.0,-212.5 304.5,-213.0 304.0,-213.5 303.0,-213.5 302.5,-214.0 302.0,-214.5 301.5,-215.0 301.0,-215.5 300.0,-215.5 299.0,-215.5 298.5,-216.0 298.0,-216.5 297.0,-216.5 296.0,-216.5 295.5,-217.0 295.0,-217.5 294.0,-217.5 293.0,-217.5 292.5,-218.0 292.0,-218.5 291.0,-218.5 290.0,-218.5 289.0,-218.5 288.0,-218.5 287.0,-218.5 286.0,-218.5 285.0,-218.5 284.5,-219.0 284.0,-219.5" /><polygon fill="url(#grad1)" points="621.0,-217.5 620.0,-217.5 619.0,-217.5 618.0,-217.5 617.0,-217.5 616.0,-217.5 615.0,-217.5 614.0,-217.5 613.0,-217.5 612.0,-217.5 611.0,-217.5 610.0,-217.5 609.0,-217.5 608.0,-217.5 607.0,-217.5 606.0,-217.5 605.0,-217.5 604.0,-217.5 603.0,-217.5 602.0,-217.5 601.0,-217.5 600.0,-217.5 599.0,-217.5 598.0,-217.5 597.0,-217.5 596.0,-217.5 595.0,-217.5 594.0,-217.5 593.0,-217.5 592.0,-217.5 591.0,-217.5 590.0,-217.5 589.0,-217.5 588.0,-217.5 587.0,-217.5 586.0,-217.5 585.0,-217.5 584.0,-217.5 583.0,-217.5 582.0,-217.5 581.0,-217.5 580.0,-217.5 579.0,-217.5 578.0,-217.5 577.0,-217.5 576.0,-217.5 575.0,-217.5 574.0,-217.5 573.0,-217.5 572.0,-217.5 571.0,-217.5 570.0,-217.5 569.5,-217.0 569.5,-216.0 569.5,-215.0 569.5,-214.0 569.5,-213.0 569.5,-212.0 569.5,-211.0 569.5,-210.0 569.5,-209.0 569.5,-208.0 569.5,-207.0 569.5,-206.0 569.5,-205.0 569.5,-204.0 569.5,-203.0 569.5,-202.0 569.5,-201.0 569.5,-200.0 569.5,-199.0 569.5,-198.0 569.5,-197.0 569.5,-196.0 569.5,-195.0 569.5,-194.0 569.5,-193.0 569.5,-192.0 569.5,-191.0 569.5,-190.0 569.5,-189.0 569.5,-188.0 569.5,-187.0 569.5,-186.0 569.5,-185.0 569.5,-184.0 569.5,-183.0 569.5,-182.0 569.5,-181.0 569.5,-180.0 569.5,-179.0 569.5,-178.0 569.5,-177.0 569.5,-176.0 569.5,-175.0 569.5,-174.0 569.5,-173.0 569.5,-172.0 569.5,-171.0 569.5,-170.0 569.5,-169.0 569.5,-168.0 569.5,-167.0 569.5,-166.0 569.5,-165.0 569.5,-164.0 569.5,-163.0 569.5,-162.0 569.5,-161.0 569.5,-160.0 569.5,-159.0 569.5,-158.0 569.5,-157.0 569.5,-156.0 569.5,-155.0 569.5,-154.0 569.5,-153.0 569.5,-152.0 569.5,-151.0 569.5,-150.0 569.5,-149.0 569.5,-148.0 569.5,-147.0 569.5,-146.0 569.5,-145.0 569.5,-144.0 569.5,-143.0 569.5,-142.0 569.5,-141.0 569.5,-140.0 569.5,-139.0 569.5,-138.0 569.5,-137.0 569.5,-136.0 569.5,-135.0 570.0,-134.5 571.0,-134.5 572.0,-134.5 573.0,-134.5 574.0,-134.5 575.0,-134.5 576.0,-134.5 577.0,-134.5 578.0,-134.5 579.0,-134.5 580.0,-134.5 581.0,-134.5 581.5,-134.0 582.0,-133.5 582.5,-134.0 582.5,-135.0 582.5,-136.0 582.5,-137.0 582.5,-138.0 582.5,-139.0 582.5,-140.0 582.5,-141.0 582.5,-142.0 582.5,-143.0 582.5,-144.0 582.5,-145.0 582.5,-146.0 582.5,-147.0 582.5,-148.0 582.5,-149.0 582.5,-150.0 582.5,-151.0 582.5,-152.0 582.5,-153.0 582.5,-154.0 582.5,-155.0 582.5,-156.0 582.5,-157.0 582.5,-158.0 582.5,-159.0 582.5,-160.0 582.5,-161.0 582.5,-162.0 582.5,-163.0 582.5,-164.0 582.5,-165.0 582.5,-166.0 582.5,-167.0 582.5,-168.0 582.5,-169.0 582.5,-170.0 582.5,-171.0 582.5,-172.0 582.5,-173.0 582.5,-174.0 582.5,-175.0 582.5,-176.0 582.5,-177.0 582.5,-178.0 582.5,-179.0 582.5,-180.0 582.5,-181.0 582.5,-182.0 582.5,-183.0 582.5,-184.0 582.5,-185.0 582.5,-186.0 582.5,-187.0 582.5,-188.0 582.5,-189.0 582.5,-190.0 582.5,-191.0 582.5,-192.0 582.5,-193.0 582.5,-194.0 582.5,-195.0 582.5,-196.0 582.5,-197.0 582.5,-198.0 582.5,-199.0 582.5,-200.0 582.5,-201.0 582.5,-202.0 582.5,-203.0 582.5,-204.0 583.0,-204.5 584.0,-204.5 585.0,-204.5 586.0,-204.5 587.0,-204.5 588.0,-204.5 589.0,-204.5 590.0,-204.5 591.0,-204.5 592.0,-204.5 593.0,-204.5 594.0,-204.5 595.0,-204.5 596.0,-204.5 597.0,-204.5 598.0,-204.5 599.0,-204.5 600.0,-204.5 601.0,-204.5 602.0,-204.5 603.0,-204.5 604.0,-204.5 605.0,-204.5 606.0,-204.5 607.0,-204.5 608.0,-204.5 609.0,-204.5 610.0,-204.5 611.0,-204.5 612.0,-204.5 613.0,-204.5 614.0,-204.5 615.0,-204.5 616.0,-204.5 617.0,-204.5 618.0,-204.5 619.0,-204.5 620.0,-204.5 621.0,-204.5 621.5,-205.0 621.5,-206.0 621.5,-207.0 621.5,-208.0 621.5,-209.0 621.5,-210.0 621.5,-211.0 621.5,-212.0 621.5,-213.0 621.5,-214.0 621.5,-215.0 621.5,-216.0 621.5,-217.0 621.0,-217.5" /><polygon fill="url(#grad1)" points="406.0,-218.5 405.0,-218.5 404.0,-218.5 403.0,-218.5 402.0,-218.5 401.0,-218.5 400.0,-218.5 399.0,-218.5 398.0,-218.5 397.0,-218.5 396.0,-218.5 395.0,-218.5 394.0,-218.5 393.0,-218.5 392.0,-218.5 391.0,-218.5 390.0,-218.5 389.5,-218.0 389.0,-217.5 388.0,-217.5 387.0,-217.5 386.5,-217.0 386.0,-216.5 385.0,-216.5 384.0,-216.5 383.5,-216.0 383.0,-215.5 382.0,-215.5 381.5,-215.0 381.0,-214.5 380.5,-214.0 380.0,-213.5 379.0,-213.5 378.5,-213.0 378.0,-212.5 377.5,-212.0 377.0,-211.5 376.5,-211.0 376.0,-210.5 375.5,-210.0 375.0,-209.5 374.5,-209.0 374.0,-208.5 373.5,-208.0 373.0,-207.5 372.5,-207.0 372.5,-206.0 372.0,-205.5 371.5,-205.0 371.0,-204.5 370.5,-204.0 370.5,-203.0 370.0,-202.5 369.5,-202.0 369.5,-201.0 369.5,-200.0 369.0,-199.5 368.5,-199.0 368.5,-198.0 368.5,-197.0 368.0,-196.5 367.5,-196.0 367.5,-195.0 367.5,-194.0 367.5,-193.0 367.5,-192.0 367.0,-191.5 366.5,-191.0 366.5,-190.0 366.5,-189.0 366.5,-188.0 366.5,-187.0 366.5,-186.0 366.5,-185.0 366.5,-184.0 366.5,-183.0 367.0,-182.5 367.5,-182.0 367.5,-181.0 367.5,-180.0 367.5,-179.0 367.5,-178.0 368.0,-177.5 368.5,-177.0 368.5,-176.0 368.5,-175.0 369.0,-174.5 369.5,-174.0 369.5,-173.0 370.0,-172.5 370.5,-172.0 370.5,-171.0 371.0,-170.5 371.5,-170.0 371.5,-169.0 372.0,-168.5 372.5,-168.0 373.0,-167.5 373.5,-167.0 373.5,-166.0 374.0,-165.5 374.5,-165.0 375.0,-164.5 375.5,-164.0 376.0,-163.5 376.5,-163.0 377.0,-162.5 377.5,-162.0 378.0,-161.5 379.0,-161.5 379.5,-161.0 380.0,-160.5 380.5,-160.0 381.0,-159.5 382.0,-159.5 382.5,-159.0 383.0,-158.5 384.0,-158.5 384.5,-158.0 385.0,-157.5 386.0,-157.5 386.5,-157.0 387.0,-156.5 388.0,-156.5 389.0,-156.5 390.0,-156.5 390.5,-156.0 391.0,-155.5 392.0,-155.5 393.0,-155.5 394.0,-155.5 395.0,-155.5 396.0,-155.5 397.0,-155.5 398.0,-155.5 399.0,-155.5 400.0,-155.5 401.0,-155.5 401.5,-156.0 402.0,-156.5 403.0,-156.5 404.0,-156.5 405.0,-156.5 405.5,-157.0 406.0,-157.5 407.0,-157.5 408.0,-157.5 408.5,-158.0 409.0,-158.5 409.5,-159.0 410.0,-159.5 411.0,-159.5 411.5,-160.0 412.0,-160.5 413.0,-160.5 413.5,-161.0 414.0,-161.5 414.5,-162.0 415.0,-162.5 415.5,-163.0 416.0,-163.5 416.5,-164.0 417.0,-164.5 417.5,-165.0 418.0,-165.5 418.5,-166.0 419.0,-166.5 419.5,-167.0 419.5,-168.0 420.0,-168.5 420.5,-169.0 420.5,-170.0 421.0,-170.5 421.5,-171.0 422.0,-171.5 422.5,-172.0 422.5,-173.0 422.5,-174.0 423.0,-174.5 423.5,-175.0 423.5,-176.0 423.5,-177.0 424.0,-177.5 424.5,-178.0 424.5,-179.0 424.5,-180.0 424.5,-181.0 424.5,-182.0 424.5,-183.0 425.0,-183.5 425.5,-184.0 425.5,-185.0 425.5,-186.0 425.5,-187.0 425.5,-188.0 425.5,-189.0 425.5,-190.0 425.0,-190.5 424.0,-190.5 423.0,-190.5 422.0,-190.5 421.0,-190.5 420.0,-190.5 419.0,-190.5 418.0,-190.5 417.0,-190.5 416.0,-190.5 415.0,-190.5 414.0,-190.5 413.0,-190.5 412.0,-190.5 411.0,-190.5 410.0,-190.5 409.0,-190.5 408.0,-190.5 407.0,-190.5 406.0,-190.5 405.0,-190.5 404.0,-190.5 403.0,-190.5 402.0,-190.5 401.0,-190.5 400.0,-190.5 399.0,-190.5 398.0,-190.5 397.0,-190.5 396.0,-190.5 395.0,-190.5 394.0,-190.5 393.0,-190.5 392.0,-190.5 391.0,-190.5 390.0,-190.5 389.0,-190.5 388.0,-190.5 387.0,-190.5 386.0,-190.5 385.0,-190.5 384.0,-190.5 383.0,-190.5 382.0,-190.5 381.0,-190.5 380.0,-190.5 379.5,-191.0 379.5,-192.0 379.5,-193.0 379.5,-194.0 379.5,-195.0 380.0,-195.5 380.5,-196.0 380.5,-197.0 381.0,-197.5 381.5,-198.0 381.5,-199.0 382.0,-199.5 382.5,-200.0 382.5,-201.0 383.0,-201.5 383.5,-202.0 384.0,-202.5 384.5,-203.0 385.0,-203.5 385.5,-204.0 386.0,-204.5 387.0,-204.5 387.5,-205.0 388.0,-205.5 388.5,-206.0 389.0,-206.5 390.0,-206.5 391.0,-206.5 391.5,-207.0 392.0,-207.5 393.0,-207.5 394.0,-207.5 395.0,-207.5 396.0,-207.5 396.5,-208.0 397.0,-208.5 398.0,-208.5 399.0,-208.5 400.0,-208.5 400.5,-208.0 401.0,-207.5 402.0,-207.5 403.0,-207.5 404.0,-207.5 404.5,-207.0 405.0,-206.5 406.0,-206.5 406.5,-206.0 407.0,-205.5 408.0,-205.5 408.5,-205.0 409.0,-204.5 409.5,-204.0 410.0,-203.5 410.5,-203.0 411.0,-202.5 412.0,-202.5 412.5,-202.0 412.5,-201.0 413.0,-200.5 414.0,-200.5 414.5,-201.0 415.0,-201.5 415.5,-202.0 416.0,-202.5 417.0,-202.5 417.5,-203.0 418.0,-203.5 418.5,-204.0 419.0,-204.5 420.0,-204.5 420.5,-205.0 421.0,-205.5 422.0,-205.5 422.5,-206.0 422.5,-207.0 422.0,-207.5 421.5,-208.0 421.0,-208.5 420.5,-209.0 420.5,-210.0 420.0,-210.5 419.5,-211.0 419.0,-211.5 418.0,-211.5 417.5,-212.0 417.0,-212.5 416.5,-213.0 416.0,-213.5 415.5,-214.0 415.0,-214.5 414.0,-214.5 413.5,-215.0 413.0,-215.5 412.0,-215.5 411.5,-216.0 411.0,-216.5 410.0,-216.5 409.5,-217.0 409.0,-217.5 408.0,-217.5 407.0,-217.5 406.5,-218.0 406.0,-218.5" /><polygon fill="url(#grad1)" points="467.0,-219.5 466.0,-219.5 465.0,-219.5 464.0,-219.5 463.5,-219.0 463.0,-218.5 462.0,-218.5 461.0,-218.5 460.0,-218.5 459.0,-218.5 458.0,-218.5 457.0,-218.5 456.5,-218.0 456.0,-217.5 455.0,-217.5 454.0,-217.5 453.5,-217.0 453.0,-216.5 452.0,-216.5 451.5,-216.0 451.0,-215.5 450.0,-215.5 449.5,-215.0 449.0,-214.5 448.0,-214.5 447.5,-214.0 447.0,-213.5 446.5,-213.0 446.0,-212.5 445.0,-212.5 444.5,-212.0 444.0,-211.5 443.5,-211.0 443.0,-210.5 442.5,-210.0 442.0,-209.5 441.5,-209.0 441.0,-208.5 440.5,-208.0 440.5,-207.0 440.0,-206.5 439.5,-206.0 439.0,-205.5 438.5,-205.0 438.5,-204.0 438.0,-203.5 437.5,-203.0 437.5,-202.0 437.0,-201.5 436.5,-201.0 436.5,-200.0 436.5,-199.0 436.0,-198.5 435.5,-198.0 435.5,-197.0 435.5,-196.0 435.0,-195.5 434.5,-195.0 434.5,-194.0 434.5,-193.0 434.5,-192.0 434.5,-191.0 434.5,-190.0 434.5,-189.0 434.5,-188.0 434.5,-187.0 434.5,-186.0 434.5,-185.0 434.5,-184.0 434.5,-183.0 434.5,-182.0 434.5,-181.0 434.5,-180.0 434.5,-179.0 435.0,-178.5 435.5,-178.0 435.5,-177.0 435.5,-176.0 435.5,-175.0 436.0,-174.5 436.5,-174.0 436.5,-173.0 437.0,-172.5 437.5,-172.0 437.5,-171.0 438.0,-170.5 438.5,-170.0 438.5,-169.0 439.0,-168.5 439.5,-168.0 440.0,-167.5 440.5,-167.0 440.5,-166.0 441.0,-165.5 441.5,-165.0 442.0,-164.5 442.5,-164.0 443.0,-163.5 443.5,-163.0 444.0,-162.5 444.5,-162.0 445.0,-161.5 446.0,-161.5 446.5,-161.0 447.0,-160.5 447.5,-160.0 448.0,-159.5 449.0,-159.5 449.5,-159.0 450.0,-158.5 451.0,-158.5 451.5,-158.0 452.0,-157.5 453.0,-157.5 453.5,-157.0 454.0,-156.5 455.0,-156.5 456.0,-156.5 456.5,-156.0 457.0,-155.5 458.0,-155.5 459.0,-155.5 460.0,-155.5 461.0,-155.5 462.0,-155.5 463.0,-155.5 464.0,-155.5 465.0,-155.5 466.0,-155.5 467.0,-155.5 468.0,-155.5 468.5,-156.0 469.0,-156.5 470.0,-156.5 471.0,-156.5 472.0,-156.5 472.5,-157.0 473.0,-157.5 474.0,-157.5 475.0,-157.5 475.5,-158.0 476.0,-158.5 477.0,-158.5 477.5,-159.0 478.0,-159.5 478.5,-160.0 479.0,-160.5 480.0,-160.5 480.5,-161.0 481.0,-161.5 481.5,-162.0 482.0,-162.5 482.5,-163.0 483.0,-163.5 483.5,-164.0 484.0,-164.5 484.5,-165.0 485.0,-165.5 485.5,-166.0 486.0,-166.5 486.5,-167.0 486.5,-168.0 487.0,-168.5 487.5,-169.0 488.0,-169.5 488.5,-170.0 488.5,-171.0 489.0,-171.5 489.5,-172.0 489.5,-173.0 489.5,-174.0 490.0,-174.5 490.5,-175.0 490.5,-176.0 490.5,-177.0 491.0,-177.5 491.5,-178.0 491.5,-179.0 491.5,-180.0 491.5,-181.0 491.5,-182.0 491.5,-183.0 492.0,-183.5 492.5,-184.0 492.5,-185.0 492.5,-186.0 492.5,-187.0 492.5,-188.0 492.5,-189.0 492.5,-190.0 492.0,-190.5 491.0,-190.5 490.0,-190.5 489.0,-190.5 488.0,-190.5 487.0,-190.5 486.0,-190.5 485.0,-190.5 484.0,-190.5 483.0,-190.5 482.0,-190.5 481.0,-190.5 480.0,-190.5 479.0,-190.5 478.0,-190.5 477.0,-190.5 476.0,-190.5 475.0,-190.5 474.0,-190.5 473.0,-190.5 472.0,-190.5 471.0,-190.5 470.0,-190.5 469.0,-190.5 468.0,-190.5 467.0,-190.5 466.0,-190.5 465.0,-190.5 464.0,-190.5 463.0,-190.5 462.0,-190.5 461.0,-190.5 460.0,-190.5 459.0,-190.5 458.0,-190.5 457.0,-190.5 456.0,-190.5 455.0,-190.5 454.0,-190.5 453.0,-190.5 452.0,-190.5 451.0,-190.5 450.0,-190.5 449.0,-190.5 448.0,-190.5 447.0,-190.5 446.5,-191.0 446.5,-192.0 446.5,-193.0 446.5,-194.0 447.0,-194.5 447.5,-195.0 447.5,-196.0 447.5,-197.0 448.0,-197.5 448.5,-198.0 448.5,-199.0 449.0,-199.5 449.5,-200.0 450.0,-200.5 450.5,-201.0 450.5,-202.0 451.0,-202.5 452.0,-202.5 452.5,-203.0 453.0,-203.5 453.5,-204.0 454.0,-204.5 454.5,-205.0 455.0,-205.5 456.0,-205.5 456.5,-206.0 457.0,-206.5 458.0,-206.5 458.5,-207.0 459.0,-207.5 460.0,-207.5 461.0,-207.5 462.0,-207.5 463.0,-207.5 463.5,-208.0 464.0,-208.5 465.0,-208.5 465.5,-208.0 466.0,-207.5 467.0,-207.5 468.0,-207.5 469.0,-207.5 470.0,-207.5 471.0,-207.5 471.5,-207.0 472.0,-206.5 473.0,-206.5 473.5,-206.0 474.0,-205.5 475.0,-205.5 475.5,-205.0 476.0,-204.5 476.5,-204.0 477.0,-203.5 478.0,-203.5 478.5,-203.0 479.0,-202.5 479.5,-202.0 479.5,-201.0 480.0,-200.5 481.0,-200.5 481.5,-201.0 482.0,-201.5 483.0,-201.5 483.5,-202.0 484.0,-202.5 484.5,-203.0 485.0,-203.5 486.0,-203.5 486.5,-204.0 487.0,-204.5 487.5,-205.0 488.0,-205.5 489.0,-205.5 489.5,-206.0 489.5,-207.0 489.5,-208.0 489.0,-208.5 488.5,-209.0 488.0,-209.5 487.5,-210.0 487.0,-210.5 486.5,-211.0 486.0,-211.5 485.5,-212.0 485.0,-212.5 484.0,-212.5 483.5,-213.0 483.0,-213.5 482.5,-214.0 482.0,-214.5 481.0,-214.5 480.5,-215.0 480.0,-215.5 479.0,-215.5 478.5,-216.0 478.0,-216.5 477.0,-216.5 476.5,-217.0 476.0,-217.5 475.0,-217.5 474.0,-217.5 473.5,-218.0 473.0,-218.5 472.0,-218.5 471.0,-218.5 470.0,-218.5 469.0,-218.5 468.0,-218.5 467.5,-219.0 467.0,-219.5" /><polygon fill="url(#grad1)" points="556.0,-217.5 555.0,-217.5 554.0,-217.5 553.0,-217.5 552.0,-217.5 551.0,-217.5 550.0,-217.5 549.0,-217.5 548.0,-217.5 547.0,-217.5 546.0,-217.5 545.0,-217.5 544.0,-217.5 543.0,-217.5 542.5,-217.0 542.5,-216.0 542.5,-215.0 543.0,-214.5 543.5,-214.0 543.0,-213.5 542.5,-213.0 543.0,-212.5 543.5,-212.0 543.0,-211.5 542.5,-211.0 542.5,-210.0 543.0,-209.5 543.5,-209.0 543.0,-208.5 542.5,-208.0 542.5,-207.0 543.0,-206.5 543.5,-206.0 543.5,-205.0 543.5,-204.0 543.5,-203.0 543.0,-202.5 542.5,-202.0 542.5,-201.0 543.0,-200.5 543.5,-200.0 543.0,-199.5 542.5,-199.0 542.5,-198.0 542.5,-197.0 542.5,-196.0 542.5,-195.0 542.5,-194.0 542.5,-193.0 542.5,-192.0 543.0,-191.5 543.5,-191.0 543.5,-190.0 543.0,-189.5 542.5,-189.0 542.5,-188.0 543.0,-187.5 543.5,-187.0 543.0,-186.5 542.5,-186.0 542.5,-185.0 542.5,-184.0 543.0,-183.5 543.5,-183.0 543.5,-182.0 543.0,-181.5 542.5,-181.0 542.5,-180.0 542.5,-179.0 542.5,-178.0 542.5,-177.0 542.5,-176.0 542.0,-175.5 541.5,-175.0 541.5,-174.0 541.0,-173.5 540.5,-173.0 540.5,-172.0 540.0,-171.5 539.5,-171.0 539.0,-170.5 538.5,-170.0 538.0,-169.5 537.0,-169.5 536.5,-169.0 536.0,-168.5 535.0,-168.5 534.5,-168.0 534.0,-167.5 533.0,-167.5 532.0,-167.5 531.0,-167.5 530.0,-167.5 529.0,-167.5 528.0,-167.5 527.0,-167.5 526.5,-168.0 526.0,-168.5 525.0,-168.5 524.0,-168.5 523.5,-169.0 523.0,-169.5 522.5,-170.0 522.0,-170.5 521.0,-170.5 520.5,-171.0 520.0,-171.5 519.5,-172.0 519.5,-173.0 519.0,-173.5 518.5,-174.0 518.0,-174.5 517.5,-175.0 517.5,-176.0 517.5,-177.0 517.0,-177.5 516.5,-178.0 516.5,-179.0 516.5,-180.0 516.5,-181.0 516.5,-182.0 516.5,-183.0 516.5,-184.0 516.5,-185.0 516.5,-186.0 516.5,-187.0 516.5,-188.0 516.5,-189.0 516.5,-190.0 516.5,-191.0 516.5,-192.0 516.5,-193.0 516.5,-194.0 516.5,-195.0 516.5,-196.0 516.5,-197.0 516.5,-198.0 516.5,-199.0 516.5,-200.0 516.5,-201.0 516.5,-202.0 516.5,-203.0 516.5,-204.0 516.5,-205.0 516.5,-206.0 516.5,-207.0 516.5,-208.0 516.5,-209.0 516.5,-210.0 516.5,-211.0 516.5,-212.0 516.5,-213.0 516.5,-214.0 516.5,-215.0 516.5,-216.0 516.5,-217.0 516.0,-217.5 515.0,-217.5 514.0,-217.5 513.0,-217.5 512.0,-217.5 511.0,-217.5 510.0,-217.5 509.0,-217.5 508.0,-217.5 507.0,-217.5 506.0,-217.5 505.0,-217.5 504.0,-217.5 503.5,-217.0 503.5,-216.0 503.5,-215.0 503.5,-214.0 503.5,-213.0 503.5,-212.0 503.5,-211.0 503.5,-210.0 503.5,-209.0 503.5,-208.0 503.5,-207.0 503.5,-206.0 503.5,-205.0 503.5,-204.0 503.5,-203.0 503.5,-202.0 503.5,-201.0 503.5,-200.0 503.5,-199.0 503.5,-198.0 503.5,-197.0 503.5,-196.0 503.5,-195.0 503.5,-194.0 503.5,-193.0 503.5,-192.0 503.5,-191.0 503.5,-190.0 503.5,-189.0 503.5,-188.0 503.5,-187.0 503.5,-186.0 503.5,-185.0 503.5,-184.0 503.5,-183.0 503.5,-182.0 503.5,-181.0 503.5,-180.0 503.5,-179.0 503.5,-178.0 503.5,-177.0 503.5,-176.0 503.5,-175.0 503.5,-174.0 503.5,-173.0 503.5,-172.0 503.5,-171.0 503.5,-170.0 503.5,-169.0 503.5,-168.0 503.5,-167.0 503.5,-166.0 503.5,-165.0 503.5,-164.0 503.5,-163.0 503.5,-162.0 503.5,-161.0 503.5,-160.0 503.5,-159.0 503.5,-158.0 504.0,-157.5 505.0,-157.5 506.0,-157.5 507.0,-157.5 508.0,-157.5 509.0,-157.5 510.0,-157.5 511.0,-157.5 512.0,-157.5 513.0,-157.5 514.0,-157.5 515.0,-157.5 515.5,-158.0 515.5,-159.0 515.5,-160.0 515.5,-161.0 515.5,-162.0 515.5,-163.0 515.5,-164.0 515.5,-165.0 516.0,-165.5 516.5,-165.0 516.5,-164.0 517.0,-163.5 517.5,-163.0 518.0,-162.5 518.5,-162.0 519.0,-161.5 519.5,-161.0 520.0,-160.5 520.5,-160.0 521.0,-159.5 522.0,-159.5 522.5,-159.0 523.0,-158.5 523.5,-158.0 524.0,-157.5 525.0,-157.5 525.5,-157.0 526.0,-156.5 527.0,-156.5 528.0,-156.5 528.5,-156.0 529.0,-155.5 530.0,-155.5 531.0,-155.5 532.0,-155.5 533.0,-155.5 534.0,-155.5 535.0,-155.5 536.0,-155.5 537.0,-155.5 538.0,-155.5 539.0,-155.5 540.0,-155.5 540.5,-156.0 541.0,-156.5 542.0,-156.5 543.0,-156.5 543.5,-157.0 544.0,-157.5 545.0,-157.5 545.5,-158.0 546.0,-158.5 547.0,-158.5 547.5,-159.0 548.0,-159.5 548.5,-160.0 549.0,-160.5 550.0,-160.5 550.5,-161.0 551.0,-161.5 551.5,-162.0 551.5,-163.0 552.0,-163.5 552.5,-164.0 553.0,-164.5 553.5,-165.0 553.5,-166.0 554.0,-166.5 554.5,-167.0 554.5,-168.0 555.0,-168.5 555.5,-169.0 555.5,-170.0 555.5,-171.0 555.5,-172.0 555.5,-173.0 556.0,-173.5 556.5,-174.0 556.5,-175.0 556.5,-176.0 556.5,-177.0 556.5,-178.0 556.5,-179.0 556.5,-180.0 556.5,-181.0 556.5,-182.0 556.5,-183.0 556.5,-184.0 556.5,-185.0 556.5,-186.0 556.5,-187.0 556.5,-188.0 556.5,-189.0 556.5,-190.0 556.5,-191.0 556.5,-192.0 556.5,-193.0 556.5,-194.0 556.5,-195.0 556.5,-196.0 556.5,-197.0 556.5,-198.0 556.5,-199.0 556.5,-200.0 556.5,-201.0 556.5,-202.0 556.5,-203.0 556.5,-204.0 556.5,-205.0 556.5,-206.0 556.5,-207.0 556.5,-208.0 556.5,-209.0 556.5,-210.0 556.5,-211.0 556.5,-212.0 556.5,-213.0 556.5,-214.0 556.5,-215.0 556.5,-216.0 556.5,-217.0 556.0,-217.5" /><polygon fill="url(#grad1)" points="657.0,-219.5 656.0,-219.5 655.5,-219.0 655.0,-218.5 654.0,-218.5 653.0,-218.5 652.0,-218.5 651.0,-218.5 650.0,-218.5 649.0,-218.5 648.0,-218.5 647.0,-218.5 646.5,-218.0 646.0,-217.5 645.0,-217.5 644.0,-217.5 643.5,-217.0 643.0,-216.5 642.0,-216.5 641.5,-216.0 641.0,-215.5 640.0,-215.5 639.5,-215.0 639.0,-214.5 638.0,-214.5 637.5,-214.0 637.0,-213.5 636.5,-213.0 636.0,-212.5 635.5,-212.0 635.0,-211.5 634.5,-211.0 634.0,-210.5 633.5,-210.0 633.0,-209.5 632.5,-209.0 632.0,-208.5 631.5,-208.0 631.0,-207.5 630.5,-207.0 630.0,-206.5 629.5,-206.0 629.5,-205.0 629.0,-204.5 628.5,-204.0 628.5,-203.0 628.0,-202.5 627.5,-202.0 627.5,-201.0 627.0,-200.5 626.5,-200.0 626.5,-199.0 626.5,-198.0 626.0,-197.5 625.5,-197.0 625.5,-196.0 625.5,-195.0 625.5,-194.0 625.0,-193.5 624.5,-193.0 624.5,-192.0 624.5,-191.0 624.5,-190.0 624.5,-189.0 624.5,-188.0 624.5,-187.0 624.5,-186.0 624.5,-185.0 624.5,-184.0 624.5,-183.0 624.5,-182.0 624.5,-181.0 625.0,-180.5 625.5,-180.0 625.5,-179.0 625.5,-178.0 625.5,-177.0 626.0,-176.5 626.5,-176.0 626.5,-175.0 626.5,-174.0 627.0,-173.5 627.5,-173.0 627.5,-172.0 628.0,-171.5 628.5,-171.0 628.5,-170.0 629.0,-169.5 629.5,-169.0 629.5,-168.0 630.0,-167.5 630.5,-167.0 631.0,-166.5 631.5,-166.0 632.0,-165.5 632.5,-165.0 633.0,-164.5 633.5,-164.0 634.0,-163.5 634.5,-163.0 635.0,-162.5 635.5,-162.0 636.0,-161.5 636.5,-161.0 637.0,-160.5 637.5,-160.0 638.0,-159.5 639.0,-159.5 639.5,-159.0 640.0,-158.5 641.0,-158.5 641.5,-158.0 642.0,-157.5 643.0,-157.5 643.5,-157.0 644.0,-156.5 645.0,-156.5 646.0,-156.5 647.0,-156.5 647.5,-156.0 648.0,-155.5 649.0,-155.5 650.0,-155.5 651.0,-155.5 652.0,-155.5 653.0,-155.5 654.0,-155.5 655.0,-155.5 656.0,-155.5 657.0,-155.5 658.0,-155.5 659.0,-155.5 659.5,-156.0 660.0,-156.5 661.0,-156.5 662.0,-156.5 662.5,-157.0 663.0,-157.5 664.0,-157.5 665.0,-157.5 665.5,-158.0 666.0,-158.5 667.0,-158.5 667.5,-159.0 668.0,-159.5 669.0,-159.5 669.5,-160.0 670.0,-160.5 670.5,-161.0 671.0,-161.5 672.0,-161.5 672.5,-162.0 673.0,-162.5 673.5,-163.0 674.0,-163.5 674.5,-164.0 675.0,-164.5 675.5,-165.0 676.0,-165.5 676.5,-166.0 676.5,-167.0 677.0,-167.5 677.5,-168.0 678.0,-168.5 678.5,-169.0 678.5,-170.0 679.0,-170.5 679.5,-171.0 679.5,-172.0 680.0,-172.5 680.5,-173.0 680.5,-174.0 680.5,-175.0 681.0,-175.5 681.5,-176.0 681.5,-177.0 681.5,-178.0 682.0,-178.5 682.5,-179.0 682.5,-180.0 682.5,-181.0 682.5,-182.0 682.5,-183.0 682.5,-184.0 682.5,-185.0 682.5,-186.0 682.5,-187.0 682.5,-188.0 682.5,-189.0 682.5,-190.0 682.0,-190.5 681.0,-190.5 680.0,-190.5 679.0,-190.5 678.0,-190.5 677.0,-190.5 676.0,-190.5 675.0,-190.5 674.0,-190.5 673.0,-190.5 672.0,-190.5 671.0,-190.5 670.0,-190.5 669.0,-190.5 668.0,-190.5 667.0,-190.5 666.0,-190.5 665.0,-190.5 664.0,-190.5 663.0,-190.5 662.0,-190.5 661.0,-190.5 660.0,-190.5 659.0,-190.5 658.0,-190.5 657.0,-190.5 656.0,-190.5 655.0,-190.5 654.0,-190.5 653.0,-190.5 652.0,-190.5 651.0,-190.5 650.0,-190.5 649.0,-190.5 648.0,-190.5 647.0,-190.5 646.0,-190.5 645.0,-190.5 644.0,-190.5 643.0,-190.5 642.0,-190.5 641.0,-190.5 640.0,-190.5 639.0,-190.5 638.0,-190.5 637.0,-190.5 636.5,-191.0 636.5,-192.0 636.5,-193.0 637.0,-193.5 637.5,-194.0 637.5,-195.0 637.5,-196.0 638.0,-196.5 638.5,-197.0 638.5,-198.0 639.0,-198.5 639.5,-199.0 639.5,-200.0 640.0,-200.5 640.5,-201.0 641.0,-201.5 641.5,-202.0 642.0,-202.5 642.5,-203.0 643.0,-203.5 643.5,-204.0 644.0,-204.5 644.5,-205.0 645.0,-205.5 646.0,-205.5 646.5,-206.0 647.0,-206.5 648.0,-206.5 648.5,-207.0 649.0,-207.5 650.0,-207.5 651.0,-207.5 652.0,-207.5 653.0,-207.5 653.5,-208.0 654.0,-208.5 655.0,-208.5 655.5,-208.0 656.0,-207.5 657.0,-207.5 658.0,-207.5 659.0,-207.5 660.0,-207.5 661.0,-207.5 661.5,-207.0 662.0,-206.5 663.0,-206.5 663.5,-206.0 664.0,-205.5 665.0,-205.5 665.5,-205.0 666.0,-204.5 667.0,-204.5 667.5,-204.0 668.0,-203.5 668.5,-203.0 669.0,-202.5 669.5,-202.0 670.0,-201.5 670.5,-201.0 671.0,-200.5 672.0,-200.5 672.5,-201.0 673.0,-201.5 673.5,-202.0 674.0,-202.5 674.5,-203.0 675.0,-203.5 676.0,-203.5 676.5,-204.0 677.0,-204.5 677.5,-205.0 678.0,-205.5 679.0,-205.5 679.5,-206.0 680.0,-206.5 680.5,-207.0 680.0,-207.5 679.5,-208.0 679.0,-208.5 678.5,-209.0 678.0,-209.5 677.5,-210.0 677.0,-210.5 676.5,-211.0 676.0,-211.5 675.5,-212.0 675.0,-212.5 674.5,-213.0 674.0,-213.5 673.5,-214.0 673.0,-214.5 672.0,-214.5 671.5,-215.0 671.0,-215.5 670.0,-215.5 669.5,-216.0 669.0,-216.5 668.0,-216.5 667.5,-217.0 667.0,-217.5 666.0,-217.5 665.0,-217.5 664.5,-218.0 664.0,-218.5 663.0,-218.5 662.0,-218.5 661.0,-218.5 660.0,-218.5 659.0,-218.5 658.0,-218.5 657.5,-219.0 657.0,-219.5" /><polygon fill="url(#grad1)" points="713.0,-219.5 712.0,-219.5 711.0,-219.5 710.0,-219.5 709.0,-219.5 708.5,-219.0 708.0,-218.5 707.0,-218.5 706.0,-218.5 705.0,-218.5 704.0,-218.5 703.5,-218.0 703.0,-217.5 702.0,-217.5 701.0,-217.5 700.5,-217.0 700.0,-216.5 699.0,-216.5 698.5,-216.0 698.0,-215.5 697.5,-215.0 697.0,-214.5 696.5,-214.0 696.0,-213.5 695.5,-213.0 695.0,-212.5 694.5,-212.0 694.0,-211.5 693.5,-211.0 693.0,-210.5 692.5,-210.0 692.5,-209.0 692.5,-208.0 692.0,-207.5 691.5,-207.0 691.5,-206.0 691.5,-205.0 691.5,-204.0 691.5,-203.0 691.0,-202.5 690.5,-202.0 690.5,-201.0 690.5,-200.0 691.0,-199.5 691.5,-199.0 691.5,-198.0 691.5,-197.0 691.5,-196.0 691.5,-195.0 692.0,-194.5 692.5,-194.0 692.5,-193.0 693.0,-192.5 693.5,-192.0 693.5,-191.0 694.0,-190.5 694.5,-190.0 695.0,-189.5 695.5,-189.0 696.0,-188.5 696.5,-188.0 696.5,-187.0 697.0,-186.5 698.0,-186.5 698.5,-186.0 699.0,-185.5 700.0,-185.5 700.5,-185.0 701.0,-184.5 701.5,-184.0 702.0,-183.5 703.0,-183.5 704.0,-183.5 704.5,-183.0 705.0,-182.5 706.0,-182.5 707.0,-182.5 708.0,-182.5 708.5,-182.0 709.0,-181.5 710.0,-181.5 711.0,-181.5 712.0,-181.5 713.0,-181.5 714.0,-181.5 715.0,-181.5 716.0,-181.5 717.0,-181.5 718.0,-181.5 719.0,-181.5 720.0,-181.5 720.5,-181.0 721.0,-180.5 721.5,-181.0 722.0,-181.5 723.0,-181.5 724.0,-181.5 725.0,-181.5 726.0,-181.5 727.0,-181.5 728.0,-181.5 728.5,-181.0 728.5,-180.0 728.5,-179.0 728.5,-178.0 728.5,-177.0 728.5,-176.0 728.5,-175.0 728.0,-174.5 727.5,-174.0 727.5,-173.0 727.0,-172.5 726.5,-172.0 726.5,-171.0 726.0,-170.5 725.5,-170.0 725.0,-169.5 724.5,-169.0 724.0,-168.5 723.0,-168.5 722.5,-168.0 722.0,-167.5 721.0,-167.5 720.0,-167.5 719.0,-167.5 718.5,-167.0 718.0,-166.5 717.0,-166.5 716.0,-166.5 715.0,-166.5 714.5,-167.0 714.0,-167.5 713.0,-167.5 712.0,-167.5 711.0,-167.5 710.5,-168.0 710.0,-168.5 709.0,-168.5 708.5,-169.0 708.0,-169.5 707.0,-169.5 706.5,-170.0 706.0,-170.5 705.5,-171.0 705.5,-172.0 705.0,-172.5 704.5,-173.0 704.0,-173.5 703.5,-174.0 703.5,-175.0 703.0,-175.5 702.0,-175.5 701.0,-175.5 700.5,-175.0 700.0,-174.5 699.0,-174.5 698.0,-174.5 697.5,-174.0 697.0,-173.5 696.0,-173.5 695.0,-173.5 694.5,-173.0 694.0,-172.5 693.0,-172.5 692.5,-172.0 692.5,-171.0 692.5,-170.0 693.0,-169.5 693.5,-169.0 693.5,-168.0 694.0,-167.5 694.5,-167.0 694.5,-166.0 695.0,-165.5 695.5,-165.0 696.0,-164.5 696.5,-164.0 697.0,-163.5 697.5,-163.0 698.0,-162.5 698.5,-162.0 699.0,-161.5 699.5,-161.0 700.0,-160.5 700.5,-160.0 701.0,-159.5 701.5,-159.0 702.0,-158.5 703.0,-158.5 703.5,-158.0 704.0,-157.5 705.0,-157.5 706.0,-157.5 706.5,-157.0 707.0,-156.5 708.0,-156.5 709.0,-156.5 710.0,-156.5 710.5,-156.0 711.0,-155.5 712.0,-155.5 713.0,-155.5 714.0,-155.5 715.0,-155.5 716.0,-155.5 717.0,-155.5 718.0,-155.5 719.0,-155.5 720.0,-155.5 721.0,-155.5 722.0,-155.5 723.0,-155.5 723.5,-156.0 724.0,-156.5 725.0,-156.5 726.0,-156.5 727.0,-156.5 727.5,-157.0 728.0,-157.5 729.0,-157.5 729.5,-158.0 730.0,-158.5 731.0,-158.5 731.5,-159.0 732.0,-159.5 733.0,-159.5 733.5,-160.0 734.0,-160.5 734.5,-161.0 735.0,-161.5 735.5,-162.0 736.0,-162.5 736.5,-163.0 737.0,-163.5 737.5,-164.0 737.5,-165.0 738.0,-165.5 738.5,-166.0 738.5,-167.0 739.0,-167.5 739.5,-168.0 739.5,-169.0 739.5,-170.0 740.0,-170.5 740.5,-171.0 740.5,-172.0 740.5,-173.0 740.5,-174.0 741.0,-174.5 741.5,-175.0 741.5,-176.0 741.5,-177.0 741.5,-178.0 741.5,-179.0 741.5,-180.0 741.5,-181.0 741.5,-182.0 741.5,-183.0 741.5,-184.0 741.5,-185.0 741.5,-186.0 741.5,-187.0 741.5,-188.0 741.5,-189.0 741.5,-190.0 741.5,-191.0 741.5,-192.0 741.5,-193.0 741.5,-194.0 741.5,-195.0 741.5,-196.0 741.5,-197.0 741.5,-198.0 741.5,-199.0 741.5,-200.0 741.5,-201.0 741.5,-202.0 741.5,-203.0 741.5,-204.0 741.5,-205.0 741.5,-206.0 741.5,-207.0 741.5,-208.0 741.5,-209.0 741.5,-210.0 741.5,-211.0 741.5,-212.0 741.5,-213.0 741.5,-214.0 741.5,-215.0 741.5,-216.0 741.5,-217.0 741.0,-217.5 740.0,-217.5 739.0,-217.5 738.0,-217.5 737.0,-217.5 736.0,-217.5 735.0,-217.5 734.0,-217.5 733.0,-217.5 732.0,-217.5 731.0,-217.5 730.0,-217.5 729.5,-217.0 729.5,-216.0 729.5,-215.0 729.5,-214.0 729.5,-213.0 729.5,-212.0 729.5,-211.0 729.5,-210.0 729.0,-209.5 728.5,-210.0 728.0,-210.5 727.5,-211.0 727.5,-212.0 727.0,-212.5 726.5,-213.0 726.0,-213.5 725.5,-214.0 725.0,-214.5 724.0,-214.5 723.5,-215.0 723.0,-215.5 722.5,-216.0 722.0,-216.5 721.0,-216.5 720.5,-217.0 720.0,-217.5 719.0,-217.5 718.5,-218.0 718.0,-218.5 717.0,-218.5 716.0,-218.5 715.0,-218.5 714.0,-218.5 713.5,-219.0 713.0,-219.5" /><polygon fill="url(#grad1)" points="341.0,-217.5 340.0,-217.5 339.0,-217.5 338.0,-217.5 337.0,-217.5 336.0,-217.5 335.0,-217.5 334.0,-217.5 333.0,-217.5 332.0,-217.5 331.0,-217.5 330.0,-217.5 329.0,-217.5 328.0,-217.5 327.5,-217.0 327.5,-216.0 327.5,-215.0 327.5,-214.0 327.5,-213.0 327.5,-212.0 327.5,-211.0 327.5,-210.0 327.5,-209.0 327.5,-208.0 327.5,-207.0 327.5,-206.0 327.5,-205.0 327.5,-204.0 327.5,-203.0 327.5,-202.0 327.5,-201.0 327.5,-200.0 327.5,-199.0 327.5,-198.0 327.5,-197.0 327.5,-196.0 327.5,-195.0 327.5,-194.0 327.5,-193.0 327.5,-192.0 327.5,-191.0 327.5,-190.0 327.5,-189.0 327.5,-188.0 327.5,-187.0 327.5,-186.0 327.5,-185.0 327.5,-184.0 327.5,-183.0 327.5,-182.0 327.5,-181.0 327.5,-180.0 327.5,-179.0 327.5,-178.0 327.5,-177.0 327.5,-176.0 327.5,-175.0 327.5,-174.0 327.5,-173.0 327.5,-172.0 327.5,-171.0 327.5,-170.0 327.5,-169.0 327.5,-168.0 327.5,-167.0 327.5,-166.0 327.5,-165.0 327.5,-164.0 327.5,-163.0 327.5,-162.0 327.5,-161.0 327.5,-160.0 327.5,-159.0 327.5,-158.0 328.0,-157.5 329.0,-157.5 330.0,-157.5 331.0,-157.5 332.0,-157.5 333.0,-157.5 334.0,-157.5 335.0,-157.5 336.0,-157.5 337.0,-157.5 338.0,-157.5 339.0,-157.5 340.0,-157.5 340.5,-158.0 340.5,-159.0 340.5,-160.0 340.5,-161.0 340.5,-162.0 340.5,-163.0 340.5,-164.0 340.5,-165.0 341.0,-165.5 341.5,-165.0 342.0,-164.5 342.5,-164.0 342.5,-163.0 343.0,-162.5 343.5,-162.0 344.0,-161.5 344.5,-161.0 345.0,-160.5 345.5,-160.0 346.0,-159.5 347.0,-159.5 347.5,-159.0 348.0,-158.5 348.5,-158.0 349.0,-157.5 350.0,-157.5 351.0,-157.5 351.5,-157.0 352.0,-156.5 353.0,-156.5 354.0,-156.5 355.0,-156.5 356.0,-156.5 357.0,-156.5 358.0,-156.5 359.0,-156.5 360.0,-156.5 361.0,-156.5 362.0,-156.5 363.0,-156.5 363.5,-157.0 363.5,-158.0 363.5,-159.0 363.5,-160.0 363.5,-161.0 363.5,-162.0 363.5,-163.0 363.5,-164.0 363.5,-165.0 363.5,-166.0 363.5,-167.0 363.5,-168.0 363.0,-168.5 362.0,-168.5 361.0,-168.5 360.0,-168.5 359.0,-168.5 358.0,-168.5 357.0,-168.5 356.0,-168.5 355.0,-168.5 354.0,-168.5 353.0,-168.5 352.0,-168.5 351.0,-168.5 350.0,-168.5 349.5,-169.0 349.0,-169.5 348.0,-169.5 347.5,-170.0 347.0,-170.5 346.5,-171.0 346.0,-171.5 345.5,-172.0 345.0,-172.5 344.5,-173.0 344.0,-173.5 343.5,-174.0 343.0,-174.5 342.5,-175.0 342.5,-176.0 342.5,-177.0 342.0,-177.5 341.5,-178.0 341.5,-179.0 341.5,-180.0 341.5,-181.0 341.5,-182.0 341.5,-183.0 341.5,-184.0 341.5,-185.0 341.5,-186.0 341.5,-187.0 341.5,-188.0 341.5,-189.0 341.5,-190.0 341.5,-191.0 341.5,-192.0 341.5,-193.0 341.5,-194.0 341.5,-195.0 341.5,-196.0 341.5,-197.0 341.5,-198.0 341.5,-199.0 341.5,-200.0 341.5,-201.0 341.5,-202.0 341.5,-203.0 341.5,-204.0 341.5,-205.0 341.5,-206.0 341.5,-207.0 341.5,-208.0 341.5,-209.0 341.5,-210.0 341.5,-211.0 341.5,-212.0 341.5,-213.0 341.5,-214.0 341.5,-215.0 341.5,-216.0 341.5,-217.0 341.0,-217.5" /><polygon fill="url(#grad1)" points="410.5,-180.0 410.5,-179.0 410.5,-178.0 410.0,-177.5 409.5,-177.0 409.5,-176.0 409.5,-175.0 409.0,-174.5 408.5,-174.0 408.0,-173.5 407.5,-173.0 407.5,-172.0 407.0,-171.5 406.5,-171.0 406.0,-170.5 405.5,-170.0 405.0,-169.5 404.0,-169.5 403.5,-169.0 403.0,-168.5 402.0,-168.5 401.5,-168.0 401.0,-167.5 400.0,-167.5 399.0,-167.5 398.0,-167.5 397.5,-167.0 397.0,-166.5 396.0,-166.5 395.0,-166.5 394.0,-166.5 393.5,-167.0 393.0,-167.5 392.0,-167.5 391.0,-167.5 390.0,-167.5 389.5,-168.0 389.0,-168.5 388.0,-168.5 387.5,-169.0 387.0,-169.5 386.0,-169.5 385.5,-170.0 385.0,-170.5 384.5,-171.0 384.0,-171.5 383.5,-172.0 383.0,-172.5 382.5,-173.0 382.5,-174.0 382.0,-174.5 381.5,-175.0 381.5,-176.0 381.0,-176.5 380.5,-177.0 380.5,-178.0 380.5,-179.0 380.0,-179.5 379.5,-180.0 380.0,-180.5 381.0,-180.5 382.0,-180.5 383.0,-180.5 384.0,-180.5 385.0,-180.5 386.0,-180.5 387.0,-180.5 388.0,-180.5 389.0,-180.5 390.0,-180.5 391.0,-180.5 392.0,-180.5 393.0,-180.5 394.0,-180.5 395.0,-180.5 396.0,-180.5 397.0,-180.5 398.0,-180.5 399.0,-180.5 400.0,-180.5 401.0,-180.5 402.0,-180.5 403.0,-180.5 404.0,-180.5 405.0,-180.5 406.0,-180.5 407.0,-180.5 408.0,-180.5 409.0,-180.5 410.0,-180.5 410.5,-180.0" /><polygon fill="url(#grad1)" points="477.5,-180.0 477.5,-179.0 477.5,-178.0 477.0,-177.5 476.5,-177.0 476.5,-176.0 476.5,-175.0 476.0,-174.5 475.5,-174.0 475.0,-173.5 474.5,-173.0 474.5,-172.0 474.0,-171.5 473.5,-171.0 473.0,-170.5 472.5,-170.0 472.0,-169.5 471.0,-169.5 470.5,-169.0 470.0,-168.5 469.0,-168.5 468.5,-168.0 468.0,-167.5 467.0,-167.5 466.0,-167.5 465.0,-167.5 464.5,-167.0 464.0,-166.5 463.0,-166.5 462.0,-166.5 461.0,-166.5 460.5,-167.0 460.0,-167.5 459.0,-167.5 458.0,-167.5 457.0,-167.5 456.5,-168.0 456.0,-168.5 455.0,-168.5 454.5,-169.0 454.0,-169.5 453.0,-169.5 452.5,-170.0 452.0,-170.5 451.5,-171.0 451.0,-171.5 450.5,-172.0 450.5,-173.0 450.0,-173.5 449.5,-174.0 449.0,-174.5 448.5,-175.0 448.5,-176.0 448.0,-176.5 447.5,-177.0 447.5,-178.0 447.5,-179.0 447.0,-179.5 446.5,-180.0 447.0,-180.5 448.0,-180.5 449.0,-180.5 450.0,-180.5 451.0,-180.5 452.0,-180.5 453.0,-180.5 454.0,-180.5 455.0,-180.5 456.0,-180.5 457.0,-180.5 458.0,-180.5 459.0,-180.5 460.0,-180.5 461.0,-180.5 462.0,-180.5 463.0,-180.5 464.0,-180.5 465.0,-180.5 466.0,-180.5 467.0,-180.5 468.0,-180.5 469.0,-180.5 470.0,-180.5 471.0,-180.5 472.0,-180.5 473.0,-180.5 474.0,-180.5 475.0,-180.5 476.0,-180.5 477.0,-180.5 477.5,-180.0" /><polygon fill="url(#grad1)" points="667.5,-180.0 667.5,-179.0 667.5,-178.0 667.5,-177.0 667.5,-176.0 667.0,-175.5 666.5,-175.0 666.5,-174.0 666.0,-173.5 665.5,-173.0 665.0,-172.5 664.5,-172.0 664.0,-171.5 663.5,-171.0 663.0,-170.5 662.5,-170.0 662.0,-169.5 661.5,-169.0 661.0,-168.5 660.0,-168.5 659.5,-168.0 659.0,-167.5 658.0,-167.5 657.0,-167.5 656.0,-167.5 655.0,-167.5 654.5,-167.0 654.0,-166.5 653.0,-166.5 652.0,-166.5 651.0,-166.5 650.5,-167.0 650.0,-167.5 649.0,-167.5 648.0,-167.5 647.0,-167.5 646.5,-168.0 646.0,-168.5 645.0,-168.5 644.5,-169.0 644.0,-169.5 643.5,-170.0 643.0,-170.5 642.5,-171.0 642.0,-171.5 641.5,-172.0 641.0,-172.5 640.5,-173.0 640.0,-173.5 639.5,-174.0 639.5,-175.0 639.0,-175.5 638.5,-176.0 638.5,-177.0 638.0,-177.5 637.5,-178.0 637.5,-179.0 637.5,-180.0 638.0,-180.5 639.0,-180.5 640.0,-180.5 641.0,-180.5 642.0,-180.5 643.0,-180.5 644.0,-180.5 645.0,-180.5 646.0,-180.5 647.0,-180.5 648.0,-180.5 649.0,-180.5 650.0,-180.5 651.0,-180.5 652.0,-180.5 653.0,-180.5 654.0,-180.5 655.0,-180.5 656.0,-180.5 657.0,-180.5 658.0,-180.5 659.0,-180.5 660.0,-180.5 661.0,-180.5 662.0,-180.5 663.0,-180.5 664.0,-180.5 665.0,-180.5 666.0,-180.5 667.0,-180.5 667.5,-180.0" /><polygon fill="url(#grad1)" points="715.5,-208.0 716.0,-207.5 717.0,-207.5 718.0,-207.5 719.0,-207.5 719.5,-207.0 720.0,-206.5 720.5,-206.0 721.0,-205.5 722.0,-205.5 722.5,-205.0 723.0,-204.5 723.5,-204.0 724.0,-203.5 724.5,-203.0 725.0,-202.5 725.5,-202.0 725.5,-201.0 726.0,-200.5 726.5,-200.0 727.0,-199.5 727.5,-199.0 727.5,-198.0 727.5,-197.0 728.0,-196.5 728.5,-196.0 728.5,-195.0 728.5,-194.0 728.5,-193.0 728.5,-192.0 728.5,-191.0 728.0,-190.5 727.0,-190.5 726.0,-190.5 725.0,-190.5 724.0,-190.5 723.0,-190.5 722.0,-190.5 721.0,-190.5 720.0,-190.5 719.0,-190.5 718.0,-190.5 717.0,-190.5 716.0,-190.5 715.0,-190.5 714.0,-190.5 713.0,-190.5 712.5,-191.0 712.0,-191.5 711.0,-191.5 710.0,-191.5 709.5,-192.0 709.0,-192.5 708.0,-192.5 707.5,-193.0 707.0,-193.5 706.5,-194.0 706.0,-194.5 705.5,-195.0 705.5,-196.0 705.0,-196.5 704.5,-197.0 704.5,-198.0 704.5,-199.0 704.5,-200.0 704.5,-201.0 704.5,-202.0 704.5,-203.0 705.0,-203.5 705.5,-204.0 705.5,-205.0 706.0,-205.5 706.5,-206.0 707.0,-206.5 708.0,-206.5 708.5,-207.0 709.0,-207.5 710.0,-207.5 710.5,-208.0 711.0,-208.5 712.0,-208.5 713.0,-208.5 714.0,-208.5 715.0,-208.5 715.5,-208.0" /></svg>