<svg width="512" height="104" viewBox="0 0 512 104" fill="none" xmlns="http://www.w3.org/2000/svg">
  <g transform="translate(177, 0) scale(1.15)">
    <path fill-rule="evenodd" clip-rule="evenodd" d="M0 17.24C0 7.72 7.7 0 17.24 0H82.75C92.28 0 100 7.72 100 17.24V73C100 82.82 87.53 87.09 81.49 79.31L62.58 55.0V84.48C62.58 93.05 55.63 100 47.07 100H17.24C7.7 100 0 92.28 0 82.76V17.24ZM17.24 13.79C15.34 13.79 13.79 15.34 13.79 17.24V82.76C13.79 84.66 15.34 86.21 17.24 86.21H47.58C48.54 86.21 49.31 85.41 49.31 84.48V44.94C49.31 35.11 61.78 30.85 67.82 38.63L86.2 62.91V17.24C86.2 15.34 86.39 13.79 84.48 13.79H17.24Z" fill="#12FFF7"/>
    <path fill-rule="evenodd" clip-rule="evenodd" d="M0 17.24C0 7.72 7.7 0 17.24 0H82.75C92.28 0 100 7.72 100 17.24V73C100 82.82 87.53 87.09 81.49 79.31L62.58 55.0V84.48C62.58 93.05 55.63 100 47.07 100H17.24C7.7 100 0 92.28 0 82.76V17.24ZM17.24 13.79C15.34 13.79 13.79 15.34 13.79 17.24V82.76C13.79 84.66 15.34 86.21 17.24 86.21H47.58C48.54 86.21 49.31 85.41 49.31 84.48V44.94C49.31 35.11 61.78 30.85 67.82 38.63L86.2 62.91V17.24C86.2 15.34 86.39 13.79 84.48 13.79H17.24Z" fill="url(#paint0_linear)"/>
    <path fill-rule="evenodd" clip-rule="evenodd" d="M0 17.24C0 7.72 7.7 0 17.24 0H82.75C92.28 0 100 7.72 100 17.24V73C100 82.82 87.53 87.09 81.49 79.31L62.58 55.0V84.48C62.58 93.05 55.63 100 47.07 100H17.24C7.7 100 0 92.28 0 82.76V17.24ZM17.24 13.79C15.34 13.79 13.79 15.34 13.79 17.24V82.76C13.79 84.66 15.34 86.21 17.24 86.21H47.58C48.54 86.21 49.31 85.41 49.31 84.48V44.94C49.31 35.11 61.78 30.85 67.82 38.63L86.2 62.91V17.24C86.2 15.34 86.39 13.79 84.48 13.79H17.24Z" fill="url(#paint1_linear)"/>
    <path d="M82.76 0C92.3 0 100 7.72 100 17.24V73C100 82.82 87.53 87.09 81.49 79.31L62.59 55.0V84.48C62.59 93.05 55.64 100 47.08 100C48.04 100 48.79 98.85 48.79 98.28V44.94C48.79 35.11 61.26 30.85 67.3 38.63L86.21 62.91V3.45C86.21 1.54 84.7 0 82.76 0Z" fill="#B9FFB3"/>
  </g>
  <defs>
    <linearGradient id="paint0_linear" x1="100" y1="100" x2="12.07" y2="0.00212" gradientUnits="userSpaceOnUse">
      <stop stop-color="#B9FFB3"/>
      <stop offset="1" stop-color="#B9FFB3" stop-opacity="0"/>
    </linearGradient>
    <linearGradient id="paint1_linear" x1="100" y1="100" x2="40.6" y2="76.9" gradientUnits="userSpaceOnUse">
      <stop stop-color="#1A1A1A" stop-opacity="0.9"/>
      <stop offset="1" stop-color="#1A1A1A" stop-opacity="0"/>
    </linearGradient>
  </defs>
</svg>